<svg width="375" height="5649" viewBox="0 0 375 5649" fill="none" xmlns="http://www.w3.org/2000/svg">
<g clip-path="url(#clip0_836_1627)">
<rect width="375" height="5649" fill="white"/>
<g style="mix-blend-mode:luminosity" opacity="0.15">
<circle cx="186.936" cy="5586.58" r="187.86" transform="rotate(150 186.936 5586.58)" fill="url(#paint0_radial_836_1627)"/>
<circle cx="186.936" cy="5586.58" r="187.86" transform="rotate(150 186.936 5586.58)" fill="url(#paint1_radial_836_1627)"/>
<circle cx="186.936" cy="5586.58" r="187.86" transform="rotate(150 186.936 5586.58)" fill="url(#paint2_radial_836_1627)"/>
<mask id="mask0_836_1627" style="mask-type:luminance" maskUnits="userSpaceOnUse" x="-1" y="5398" width="376" height="377">
<circle cx="186.936" cy="5586.58" r="187.86" transform="rotate(150 186.936 5586.58)" fill="white"/>
</mask>
<g mask="url(#mask0_836_1627)">
<circle cx="186.936" cy="5586.58" r="187.86" transform="rotate(150 186.936 5586.58)" fill="url(#paint3_radial_836_1627)"/>
<rect x="181.264" y="5394.19" width="449.004" height="410.952" transform="rotate(93.4783 181.264 5394.19)" fill="url(#paint4_radial_836_1627)"/>
<g style="mix-blend-mode:soft-light">
<rect x="306.663" y="5793.96" width="215.642" height="211.673" transform="rotate(150 306.663 5793.96)" fill="url(#paint5_radial_836_1627)" fill-opacity="0.5"/>
</g>
<g style="mix-blend-mode:soft-light">
<rect x="439.004" y="5480.77" width="300.312" height="295.02" transform="rotate(150 439.004 5480.77)" fill="url(#paint6_radial_836_1627)" fill-opacity="0.5"/>
</g>
</g>
<circle cx="186.941" cy="5586.59" r="120.23" transform="rotate(150 186.941 5586.59)" fill="url(#paint7_radial_836_1627)"/>
<circle cx="186.941" cy="5586.59" r="120.23" transform="rotate(150 186.941 5586.59)" fill="url(#paint8_radial_836_1627)"/>
<circle cx="186.941" cy="5586.59" r="120.23" transform="rotate(150 186.941 5586.59)" fill="url(#paint9_radial_836_1627)"/>
<mask id="mask1_836_1627" style="mask-type:luminance" maskUnits="userSpaceOnUse" x="66" y="5466" width="242" height="241">
<circle cx="186.941" cy="5586.59" r="120.23" transform="rotate(150 186.941 5586.59)" fill="white"/>
</mask>
<g mask="url(#mask1_836_1627)">
<circle cx="186.941" cy="5586.59" r="120.23" transform="rotate(150 186.941 5586.59)" fill="url(#paint10_radial_836_1627)"/>
<rect x="183.312" y="5463.46" width="287.363" height="263.009" transform="rotate(93.4783 183.312 5463.46)" fill="url(#paint11_radial_836_1627)"/>
<g style="mix-blend-mode:soft-light">
<rect x="263.565" y="5719.31" width="138.011" height="135.471" transform="rotate(150 263.565 5719.31)" fill="url(#paint12_radial_836_1627)" fill-opacity="0.5"/>
</g>
<g style="mix-blend-mode:soft-light">
<rect x="348.266" y="5518.87" width="192.199" height="188.813" transform="rotate(150 348.266 5518.87)" fill="url(#paint13_radial_836_1627)" fill-opacity="0.5"/>
</g>
</g>
<circle cx="186.939" cy="5586.59" r="52.6008" transform="rotate(150 186.939 5586.59)" fill="url(#paint14_radial_836_1627)"/>
<circle cx="186.939" cy="5586.59" r="52.6008" transform="rotate(150 186.939 5586.59)" fill="url(#paint15_radial_836_1627)"/>
<circle cx="186.939" cy="5586.59" r="52.6008" transform="rotate(150 186.939 5586.59)" fill="url(#paint16_radial_836_1627)"/>
<mask id="mask2_836_1627" style="mask-type:luminance" maskUnits="userSpaceOnUse" x="134" y="5533" width="106" height="107">
<circle cx="186.939" cy="5586.59" r="52.6008" transform="rotate(150 186.939 5586.59)" fill="white"/>
</mask>
<g mask="url(#mask2_836_1627)">
<circle cx="186.939" cy="5586.59" r="52.6008" transform="rotate(150 186.939 5586.59)" fill="url(#paint17_radial_836_1627)"/>
<rect x="185.348" y="5532.72" width="125.721" height="115.067" transform="rotate(93.4783 185.348 5532.72)" fill="url(#paint18_radial_836_1627)"/>
<g style="mix-blend-mode:soft-light">
<rect x="220.464" y="5644.66" width="60.3798" height="59.2685" transform="rotate(150 220.464 5644.66)" fill="url(#paint19_radial_836_1627)" fill-opacity="0.5"/>
</g>
<g style="mix-blend-mode:soft-light">
<rect x="257.518" y="5556.96" width="84.0872" height="82.6055" transform="rotate(150 257.518 5556.96)" fill="url(#paint20_radial_836_1627)" fill-opacity="0.5"/>
</g>
</g>
</g>
<g opacity="0.9" filter="url(#filter0_f_836_1627)">
<path d="M427.461 2301.37C553.493 2305.01 652.233 2426.98 648.004 2573.8C643.774 2720.63 538.176 2836.71 412.145 2833.08C286.113 2829.45 380.22 2647.22 191.602 2560.66C-157.938 2400.24 301.43 2297.74 427.461 2301.37Z" fill="#BADAFF"/>
</g>
<g filter="url(#filter1_f_836_1627)">
<ellipse cx="572.5" cy="2285.05" rx="295.5" ry="265" fill="#3F65A7"/>
</g>
<g style="mix-blend-mode:lighten" opacity="0.86" filter="url(#filter2_f_836_1627)">
<path d="M351.98 1802.53C812.917 2120.61 683.6 2659.74 857.14 2748.84C1075.29 2860.85 1295.4 2415.92 1224.59 2151.28C1141.12 1839.34 39.6091 1586.97 351.98 1802.53Z" fill="#00EAFF"/>
</g>
<g opacity="0.6">
<g filter="url(#filter3_f_836_1627)">
<path d="M-199.746 442.62C160.206 642.501 523.642 1020.81 670.255 1038.12C932.755 1069.12 894.367 351.918 616.755 95.6203C356.255 -144.879 -1451.97 -391.09 -1008.25 95.6201C-772.175 354.559 -506.081 272.512 -199.746 442.62Z" fill="#804AE9"/>
</g>
<g filter="url(#filter4_f_836_1627)">
<path d="M-15.7456 273.62C344.206 473.501 707.642 851.806 854.255 869.12C1116.76 900.12 1078.37 182.918 800.755 -73.3797C540.255 -313.879 -1267.97 -560.09 -824.245 -73.3799C-588.175 185.559 -322.081 103.512 -15.7456 273.62Z" fill="#CF00A3"/>
</g>
<g filter="url(#filter5_f_836_1627)">
<path d="M-155.952 -91.3897C-235.773 -6.20558 248.525 548.65 557.288 754.68C866.05 960.711 841.856 475.502 581.914 228.668C365.559 23.222 -76.1305 -176.574 -155.952 -91.3897Z" fill="#FF8993"/>
<path d="M-155.952 -91.3897C-235.773 -6.20558 248.525 548.65 557.288 754.68C866.05 960.711 841.856 475.502 581.914 228.668C365.559 23.222 -76.1305 -176.574 -155.952 -91.3897Z" stroke="#FF1D74" stroke-width="74"/>
</g>
</g>
<g opacity="0.5">
<g filter="url(#filter6_f_836_1627)">
<path d="M-754.579 4530.69C-894.744 4629.96 -895.754 4768.23 -808.267 4891.76C-625.713 5149.5 676.465 4364.84 711.59 4017.19C737.403 3761.7 562.202 3551.76 361.116 3575.58C133.871 3602.49 46.7249 3692.3 -64.4548 3876.99C-157.221 4031.1 -161.735 4117.57 -274.329 4271.87C-379.717 4416.3 -630.077 4442.51 -754.579 4530.69Z" fill="#BADAFF"/>
</g>
<circle cx="167.069" cy="167.069" r="167.069" transform="matrix(-0.420792 0.907157 0.907157 0.420792 -142.376 3475.11)" fill="url(#paint21_radial_836_1627)"/>
<g opacity="0.54" filter="url(#filter7_f_836_1627)">
<ellipse cx="-309.467" cy="3633.83" rx="515.859" ry="376.822" transform="rotate(180 -309.467 3633.83)" fill="#4D3589"/>
<path d="M-309.467 3157.01C-470.857 3157.01 -621.001 3204.65 -733.221 3286.62C-845.364 3368.54 -925.326 3490.09 -925.326 3633.83C-925.326 3777.57 -845.364 3899.11 -733.221 3981.03C-621.001 4063.01 -470.857 4110.65 -309.467 4110.65C-148.078 4110.65 2.06624 4063.01 114.286 3981.03C226.429 3899.11 306.392 3777.57 306.392 3633.83C306.392 3490.09 226.429 3368.54 114.286 3286.62C2.06624 3204.65 -148.078 3157.01 -309.467 3157.01Z" stroke="#9167FF" stroke-width="200"/>
</g>
<g opacity="0.58" filter="url(#filter8_f_836_1627)">
<ellipse cx="821.918" cy="4858.3" rx="651.829" ry="344.872" transform="rotate(-169.459 821.918 4858.3)" fill="#0025CE"/>
</g>
<g opacity="0.57" filter="url(#filter9_f_836_1627)">
<path d="M790.897 5222.12C472.582 5265.48 269.775 4811.38 164.181 4849.27C31.4426 4896.89 156.884 5337.35 306.095 5482.45C481.974 5653.47 1006.61 5192.73 790.897 5222.12Z" fill="#00EAFF"/>
</g>
<g opacity="0.5" filter="url(#filter10_f_836_1627)">
<path d="M27.9483 5394.06C39.7959 5461.44 281.104 5534.45 391.781 5514.58C502.458 5494.71 356.706 5285.39 242.084 5269.12C146.682 5255.58 16.1007 5326.68 27.9483 5394.06Z" fill="#FF8993"/>
<path d="M27.9483 5394.06C39.7959 5461.44 281.104 5534.45 391.781 5514.58C502.458 5494.71 356.706 5285.39 242.084 5269.12C146.682 5255.58 16.1007 5326.68 27.9483 5394.06Z" stroke="#FF1D74" stroke-width="61.1428"/>
</g>
<g style="mix-blend-mode:screen" opacity="0.87" filter="url(#filter11_f_836_1627)">
<ellipse cx="129.149" cy="4760.5" rx="238.636" ry="257.35" transform="rotate(-160.396 129.149 4760.5)" fill="#303E57"/>
</g>
</g>
<g opacity="0.5">
<g filter="url(#filter12_f_836_1627)">
<ellipse cx="574.003" cy="1912.96" rx="495.003" ry="440.963" fill="url(#paint22_radial_836_1627)"/>
</g>
<g filter="url(#filter13_f_836_1627)">
<ellipse cx="140.755" cy="1614.97" rx="651.829" ry="344.872" transform="rotate(10.5409 140.755 1614.97)" fill="#0025CE"/>
</g>
<circle cx="11.571" cy="931.344" r="128.726" transform="rotate(15 11.571 931.344)" fill="url(#paint23_radial_836_1627)"/>
<g style="mix-blend-mode:lighten" filter="url(#filter14_f_836_1627)">
<path d="M493.304 1542.81C-65.954 1513.3 -238.196 986.314 -432.696 1001.31C-677.196 1020.17 -631.64 1514.48 -432.696 1702.81C-198.196 1924.81 872.304 1562.81 493.304 1542.81Z" fill="#00EAFF"/>
</g>
<g opacity="0.95" filter="url(#filter15_f_836_1627)">
<path d="M-20.9671 1824.41C-105.557 1774 -179.641 1807.89 -225.921 1885.55C-322.49 2047.59 389.873 2550.21 583.482 2482.46C725.767 2432.68 798.451 2286.48 740.448 2184.62C674.899 2069.51 607.306 2045.16 483.613 2031.56C380.407 2020.21 333.201 2039.33 225.427 2017.39C124.551 1996.87 54.1708 1869.19 -20.9671 1824.41Z" fill="#BADAFF"/>
</g>
<g filter="url(#filter16_f_836_1627)">
<ellipse cx="-209.68" cy="1309.5" rx="283.241" ry="244.656" fill="#303E57"/>
</g>
</g>
<g opacity="0.8">
<mask id="mask3_836_1627" style="mask-type:luminance" maskUnits="userSpaceOnUse" x="182" y="-55" width="395" height="395">
<circle cx="379.54" cy="142.494" r="196.584" transform="rotate(150 379.54 142.494)" fill="white"/>
</mask>
<g mask="url(#mask3_836_1627)">
<circle cx="379.54" cy="142.494" r="196.584" transform="rotate(150 379.54 142.494)" fill="url(#paint24_radial_836_1627)"/>
<g style="mix-blend-mode:soft-light">
<rect x="504.827" y="359.498" width="225.657" height="221.504" transform="rotate(150 504.827 359.498)" fill="url(#paint25_radial_836_1627)" fill-opacity="0.5"/>
</g>
<g style="mix-blend-mode:soft-light">
<rect x="643.315" y="31.7642" width="314.258" height="308.721" transform="rotate(150 643.315 31.7642)" fill="url(#paint26_radial_836_1627)" fill-opacity="0.5"/>
</g>
</g>
</g>
<circle cx="363.258" cy="2700.26" r="126.088" transform="rotate(85.1695 363.258 2700.26)" fill="url(#paint27_radial_836_1627)"/>
</g>
<defs>
<filter id="filter0_f_836_1627" x="-137.124" y="2101.28" width="985.259" height="931.885" filterUnits="userSpaceOnUse" color-interpolation-filters="sRGB">
<feFlood flood-opacity="0" result="BackgroundImageFix"/>
<feBlend mode="normal" in="SourceGraphic" in2="BackgroundImageFix" result="shape"/>
<feGaussianBlur stdDeviation="100" result="effect1_foregroundBlur_836_1627"/>
</filter>
<filter id="filter1_f_836_1627" x="-23" y="1720.05" width="1191" height="1130" filterUnits="userSpaceOnUse" color-interpolation-filters="sRGB">
<feFlood flood-opacity="0" result="BackgroundImageFix"/>
<feBlend mode="normal" in="SourceGraphic" in2="BackgroundImageFix" result="shape"/>
<feGaussianBlur stdDeviation="150" result="effect1_foregroundBlur_836_1627"/>
</filter>
<filter id="filter2_f_836_1627" x="96.3599" y="1522.11" width="1341.74" height="1444.46" filterUnits="userSpaceOnUse" color-interpolation-filters="sRGB">
<feFlood flood-opacity="0" result="BackgroundImageFix"/>
<feBlend mode="normal" in="SourceGraphic" in2="BackgroundImageFix" result="shape"/>
<feGaussianBlur stdDeviation="100" result="effect1_foregroundBlur_836_1627"/>
</filter>
<filter id="filter3_f_836_1627" x="-1328" y="-434.5" width="2425.51" height="1723.59" filterUnits="userSpaceOnUse" color-interpolation-filters="sRGB">
<feFlood flood-opacity="0" result="BackgroundImageFix"/>
<feBlend mode="normal" in="SourceGraphic" in2="BackgroundImageFix" result="shape"/>
<feGaussianBlur stdDeviation="125" result="effect1_foregroundBlur_836_1627"/>
</filter>
<filter id="filter4_f_836_1627" x="-1194" y="-653.5" width="2525.51" height="1823.59" filterUnits="userSpaceOnUse" color-interpolation-filters="sRGB">
<feFlood flood-opacity="0" result="BackgroundImageFix"/>
<feBlend mode="normal" in="SourceGraphic" in2="BackgroundImageFix" result="shape"/>
<feGaussianBlur stdDeviation="150" result="effect1_foregroundBlur_836_1627"/>
</filter>
<filter id="filter5_f_836_1627" x="-351.688" y="-298.539" width="1321.55" height="1290.02" filterUnits="userSpaceOnUse" color-interpolation-filters="sRGB">
<feFlood flood-opacity="0" result="BackgroundImageFix"/>
<feBlend mode="normal" in="SourceGraphic" in2="BackgroundImageFix" result="shape"/>
<feGaussianBlur stdDeviation="75" result="effect1_foregroundBlur_836_1627"/>
</filter>
<filter id="filter6_f_836_1627" x="-1068.04" y="3373.73" width="1982.16" height="1769.07" filterUnits="userSpaceOnUse" color-interpolation-filters="sRGB">
<feFlood flood-opacity="0" result="BackgroundImageFix"/>
<feBlend mode="normal" in="SourceGraphic" in2="BackgroundImageFix" result="shape"/>
<feGaussianBlur stdDeviation="100" result="effect1_foregroundBlur_836_1627"/>
</filter>
<filter id="filter7_f_836_1627" x="-1337.83" y="2744.51" width="2056.72" height="1778.64" filterUnits="userSpaceOnUse" color-interpolation-filters="sRGB">
<feFlood flood-opacity="0" result="BackgroundImageFix"/>
<feBlend mode="normal" in="SourceGraphic" in2="BackgroundImageFix" result="shape"/>
<feGaussianBlur stdDeviation="156.25" result="effect1_foregroundBlur_836_1627"/>
</filter>
<filter id="filter8_f_836_1627" x="-222.056" y="4098.79" width="2087.95" height="1519.02" filterUnits="userSpaceOnUse" color-interpolation-filters="sRGB">
<feFlood flood-opacity="0" result="BackgroundImageFix"/>
<feBlend mode="normal" in="SourceGraphic" in2="BackgroundImageFix" result="shape"/>
<feGaussianBlur stdDeviation="200" result="effect1_foregroundBlur_836_1627"/>
</filter>
<filter id="filter9_f_836_1627" x="-57.1596" y="4681.77" width="1064.51" height="1004.11" filterUnits="userSpaceOnUse" color-interpolation-filters="sRGB">
<feFlood flood-opacity="0" result="BackgroundImageFix"/>
<feBlend mode="normal" in="SourceGraphic" in2="BackgroundImageFix" result="shape"/>
<feGaussianBlur stdDeviation="82.6255" result="effect1_foregroundBlur_836_1627"/>
</filter>
<filter id="filter10_f_836_1627" x="-127.325" y="5112.94" width="713.037" height="559.463" filterUnits="userSpaceOnUse" color-interpolation-filters="sRGB">
<feFlood flood-opacity="0" result="BackgroundImageFix"/>
<feBlend mode="normal" in="SourceGraphic" in2="BackgroundImageFix" result="shape"/>
<feGaussianBlur stdDeviation="61.9691" result="effect1_foregroundBlur_836_1627"/>
</filter>
<filter id="filter11_f_836_1627" x="-359.607" y="4257.24" width="977.513" height="1006.51" filterUnits="userSpaceOnUse" color-interpolation-filters="sRGB">
<feFlood flood-opacity="0" result="BackgroundImageFix"/>
<feBlend mode="normal" in="SourceGraphic" in2="BackgroundImageFix" result="shape"/>
<feGaussianBlur stdDeviation="123.938" result="effect1_foregroundBlur_836_1627"/>
</filter>
<filter id="filter12_f_836_1627" x="-267" y="1126" width="1682.01" height="1573.93" filterUnits="userSpaceOnUse" color-interpolation-filters="sRGB">
<feFlood flood-opacity="0" result="BackgroundImageFix"/>
<feBlend mode="normal" in="SourceGraphic" in2="BackgroundImageFix" result="shape"/>
<feGaussianBlur stdDeviation="173" result="effect1_foregroundBlur_836_1627"/>
</filter>
<filter id="filter13_f_836_1627" x="-903.218" y="855.461" width="2087.95" height="1519.02" filterUnits="userSpaceOnUse" color-interpolation-filters="sRGB">
<feFlood flood-opacity="0" result="BackgroundImageFix"/>
<feBlend mode="normal" in="SourceGraphic" in2="BackgroundImageFix" result="shape"/>
<feGaussianBlur stdDeviation="200" result="effect1_foregroundBlur_836_1627"/>
</filter>
<filter id="filter14_f_836_1627" x="-799.424" y="801" width="1573.16" height="1173.59" filterUnits="userSpaceOnUse" color-interpolation-filters="sRGB">
<feFlood flood-opacity="0" result="BackgroundImageFix"/>
<feBlend mode="normal" in="SourceGraphic" in2="BackgroundImageFix" result="shape"/>
<feGaussianBlur stdDeviation="100" result="effect1_foregroundBlur_836_1627"/>
</filter>
<filter id="filter15_f_836_1627" x="-434.873" y="1600.58" width="1395.35" height="1088.12" filterUnits="userSpaceOnUse" color-interpolation-filters="sRGB">
<feFlood flood-opacity="0" result="BackgroundImageFix"/>
<feBlend mode="normal" in="SourceGraphic" in2="BackgroundImageFix" result="shape"/>
<feGaussianBlur stdDeviation="100" result="effect1_foregroundBlur_836_1627"/>
</filter>
<filter id="filter16_f_836_1627" x="-792.921" y="764.84" width="1166.48" height="1089.31" filterUnits="userSpaceOnUse" color-interpolation-filters="sRGB">
<feFlood flood-opacity="0" result="BackgroundImageFix"/>
<feBlend mode="normal" in="SourceGraphic" in2="BackgroundImageFix" result="shape"/>
<feGaussianBlur stdDeviation="150" result="effect1_foregroundBlur_836_1627"/>
</filter>
<radialGradient id="paint0_radial_836_1627" cx="0" cy="0" r="1" gradientUnits="userSpaceOnUse" gradientTransform="translate(223.317 5550.86) rotate(99.2423) scale(226.521)">
<stop stop-color="#31B5FF"/>
<stop offset="1" stop-color="#FF87C8"/>
</radialGradient>
<radialGradient id="paint1_radial_836_1627" cx="0" cy="0" r="1" gradientUnits="userSpaceOnUse" gradientTransform="translate(115.496 5483.39) rotate(60.5646) scale(212.667)">
<stop stop-color="#5200FF"/>
<stop offset="1" stop-color="white" stop-opacity="0"/>
</radialGradient>
<radialGradient id="paint2_radial_836_1627" cx="0" cy="0" r="1" gradientUnits="userSpaceOnUse" gradientTransform="translate(374.796 5523.08) rotate(123.521) scale(124.571 149.938)">
<stop stop-color="white"/>
<stop offset="1" stop-color="white" stop-opacity="0"/>
</radialGradient>
<radialGradient id="paint3_radial_836_1627" cx="0" cy="0" r="1" gradientUnits="userSpaceOnUse" gradientTransform="translate(198.843 5560.12) rotate(106.479) scale(214.533 206.274)">
<stop offset="0.619792" stop-color="white" stop-opacity="0"/>
<stop offset="0.796875" stop-color="white" stop-opacity="0"/>
<stop offset="1" stop-color="white"/>
</radialGradient>
<radialGradient id="paint4_radial_836_1627" cx="0" cy="0" r="1" gradientUnits="userSpaceOnUse" gradientTransform="translate(405.766 5599.66) rotate(90) scale(205.476 226.044)">
<stop stop-color="#FFE600"/>
<stop offset="1" stop-color="#FFE600" stop-opacity="0"/>
</radialGradient>
<radialGradient id="paint5_radial_836_1627" cx="0" cy="0" r="1" gradientUnits="userSpaceOnUse" gradientTransform="translate(414.484 5899.79) rotate(90) scale(105.837 108.562)">
<stop stop-color="white"/>
<stop offset="1" stop-color="white" stop-opacity="0"/>
</radialGradient>
<radialGradient id="paint6_radial_836_1627" cx="0" cy="0" r="1" gradientUnits="userSpaceOnUse" gradientTransform="translate(589.16 5628.28) rotate(90) scale(147.51 151.187)">
<stop stop-color="white"/>
<stop offset="1" stop-color="white" stop-opacity="0"/>
</radialGradient>
<radialGradient id="paint7_radial_836_1627" cx="0" cy="0" r="1" gradientUnits="userSpaceOnUse" gradientTransform="translate(210.225 5563.73) rotate(99.2423) scale(144.973)">
<stop stop-color="#31B5FF"/>
<stop offset="1" stop-color="#FF87C8"/>
</radialGradient>
<radialGradient id="paint8_radial_836_1627" cx="0" cy="0" r="1" gradientUnits="userSpaceOnUse" gradientTransform="translate(141.219 5520.55) rotate(60.5646) scale(136.107)">
<stop stop-color="#5200FF"/>
<stop offset="1" stop-color="white" stop-opacity="0"/>
</radialGradient>
<radialGradient id="paint9_radial_836_1627" cx="0" cy="0" r="1" gradientUnits="userSpaceOnUse" gradientTransform="translate(307.171 5545.95) rotate(123.521) scale(79.7253 95.9603)">
<stop stop-color="white"/>
<stop offset="1" stop-color="white" stop-opacity="0"/>
</radialGradient>
<radialGradient id="paint10_radial_836_1627" cx="0" cy="0" r="1" gradientUnits="userSpaceOnUse" gradientTransform="translate(194.561 5569.66) rotate(106.479) scale(137.301 132.015)">
<stop offset="0.619792" stop-color="white" stop-opacity="0"/>
<stop offset="0.796875" stop-color="white" stop-opacity="0"/>
<stop offset="1" stop-color="white"/>
</radialGradient>
<radialGradient id="paint11_radial_836_1627" cx="0" cy="0" r="1" gradientUnits="userSpaceOnUse" gradientTransform="translate(326.993 5594.97) rotate(90) scale(131.505 144.668)">
<stop stop-color="#FFE600"/>
<stop offset="1" stop-color="#FFE600" stop-opacity="0"/>
</radialGradient>
<radialGradient id="paint12_radial_836_1627" cx="0" cy="0" r="1" gradientUnits="userSpaceOnUse" gradientTransform="translate(332.57 5787.05) rotate(90) scale(67.7355 69.4794)">
<stop stop-color="white"/>
<stop offset="1" stop-color="white" stop-opacity="0"/>
</radialGradient>
<radialGradient id="paint13_radial_836_1627" cx="0" cy="0" r="1" gradientUnits="userSpaceOnUse" gradientTransform="translate(444.366 5613.28) rotate(90) scale(94.4063 96.7597)">
<stop stop-color="white"/>
<stop offset="1" stop-color="white" stop-opacity="0"/>
</radialGradient>
<radialGradient id="paint14_radial_836_1627" cx="0" cy="0" r="1" gradientUnits="userSpaceOnUse" gradientTransform="translate(197.126 5576.59) rotate(99.2423) scale(63.4258)">
<stop stop-color="#31B5FF"/>
<stop offset="1" stop-color="#FF87C8"/>
</radialGradient>
<radialGradient id="paint15_radial_836_1627" cx="0" cy="0" r="1" gradientUnits="userSpaceOnUse" gradientTransform="translate(166.936 5557.7) rotate(60.5646) scale(59.5469)">
<stop stop-color="#5200FF"/>
<stop offset="1" stop-color="white" stop-opacity="0"/>
</radialGradient>
<radialGradient id="paint16_radial_836_1627" cx="0" cy="0" r="1" gradientUnits="userSpaceOnUse" gradientTransform="translate(239.54 5568.81) rotate(123.521) scale(34.8798 41.9826)">
<stop stop-color="white"/>
<stop offset="1" stop-color="white" stop-opacity="0"/>
</radialGradient>
<radialGradient id="paint17_radial_836_1627" cx="0" cy="0" r="1" gradientUnits="userSpaceOnUse" gradientTransform="translate(190.273 5579.18) rotate(106.479) scale(60.0691 57.7568)">
<stop offset="0.619792" stop-color="white" stop-opacity="0"/>
<stop offset="0.796875" stop-color="white" stop-opacity="0"/>
<stop offset="1" stop-color="white"/>
</radialGradient>
<radialGradient id="paint18_radial_836_1627" cx="0" cy="0" r="1" gradientUnits="userSpaceOnUse" gradientTransform="translate(248.208 5590.25) rotate(90) scale(57.5333 63.2924)">
<stop stop-color="#FFE600"/>
<stop offset="1" stop-color="#FFE600" stop-opacity="0"/>
</radialGradient>
<radialGradient id="paint19_radial_836_1627" cx="0" cy="0" r="1" gradientUnits="userSpaceOnUse" gradientTransform="translate(250.654 5674.29) rotate(90) scale(29.6343 30.3973)">
<stop stop-color="white"/>
<stop offset="1" stop-color="white" stop-opacity="0"/>
</radialGradient>
<radialGradient id="paint20_radial_836_1627" cx="0" cy="0" r="1" gradientUnits="userSpaceOnUse" gradientTransform="translate(299.561 5598.26) rotate(90) scale(41.3028 42.3324)">
<stop stop-color="white"/>
<stop offset="1" stop-color="white" stop-opacity="0"/>
</radialGradient>
<radialGradient id="paint21_radial_836_1627" cx="0" cy="0" r="1" gradientUnits="userSpaceOnUse" gradientTransform="translate(177.658 143.538) rotate(106.479) scale(190.789 183.445)">
<stop offset="0.619792" stop-color="white" stop-opacity="0"/>
<stop offset="0.796875" stop-color="white" stop-opacity="0"/>
<stop offset="1" stop-color="white"/>
</radialGradient>
<radialGradient id="paint22_radial_836_1627" cx="0" cy="0" r="1" gradientUnits="userSpaceOnUse" gradientTransform="translate(599.608 1972.78) rotate(157.283) scale(326.005 361.105)">
<stop stop-color="#4D3589"/>
<stop offset="1" stop-color="#7B4DEE"/>
</radialGradient>
<radialGradient id="paint23_radial_836_1627" cx="0" cy="0" r="1" gradientUnits="userSpaceOnUse" gradientTransform="translate(19.7297 913.213) rotate(106.479) scale(147.003 141.344)">
<stop offset="0.619792" stop-color="white" stop-opacity="0"/>
<stop offset="0.796875" stop-color="white" stop-opacity="0"/>
<stop offset="1" stop-color="white"/>
</radialGradient>
<radialGradient id="paint24_radial_836_1627" cx="0" cy="0" r="1" gradientUnits="userSpaceOnUse" gradientTransform="translate(391.999 114.806) rotate(106.479) scale(224.496 215.854)">
<stop offset="0.619792" stop-color="white" stop-opacity="0"/>
<stop offset="0.796875" stop-color="white" stop-opacity="0"/>
<stop offset="1" stop-color="white"/>
</radialGradient>
<radialGradient id="paint25_radial_836_1627" cx="0" cy="0" r="1" gradientUnits="userSpaceOnUse" gradientTransform="translate(617.656 470.25) rotate(90) scale(110.752 113.603)">
<stop stop-color="#A9A9A9"/>
<stop offset="1" stop-color="#7E7E7E" stop-opacity="0"/>
</radialGradient>
<radialGradient id="paint26_radial_836_1627" cx="0" cy="0" r="1" gradientUnits="userSpaceOnUse" gradientTransform="translate(800.444 186.124) rotate(90) scale(154.36 158.208)">
<stop stop-color="#FFFBA6"/>
<stop offset="1" stop-color="white" stop-opacity="0"/>
</radialGradient>
<radialGradient id="paint27_radial_836_1627" cx="0" cy="0" r="1" gradientUnits="userSpaceOnUse" gradientTransform="translate(371.249 2682.5) rotate(106.479) scale(143.99 138.447)">
<stop offset="0.619792" stop-color="white" stop-opacity="0"/>
<stop offset="0.796875" stop-color="white" stop-opacity="0"/>
<stop offset="1" stop-color="white"/>
</radialGradient>
<clipPath id="clip0_836_1627">
<rect width="375" height="5649" fill="white"/>
</clipPath>
</defs>
</svg>
