<svg width="1440" height="4630" viewBox="0 0 1440 4630" fill="none" xmlns="http://www.w3.org/2000/svg">
<g clip-path="url(#clip0_828_5178)">
<rect width="1440" height="4630" fill="white"/>
<g filter="url(#filter0_f_828_5178)">
<ellipse cx="1344.32" cy="2293.05" rx="295.5" ry="265" fill="#3F65A7"/>
</g>
<g style="mix-blend-mode:lighten" opacity="0.86" filter="url(#filter1_f_828_5178)">
<path d="M561.628 1802.53C1022.57 2120.61 893.248 2659.74 1066.79 2748.84C1284.94 2860.85 1505.05 2415.92 1434.24 2151.28C1350.77 1839.34 249.258 1586.97 561.628 1802.53Z" fill="#00EAFF"/>
</g>
<g opacity="0.6">
<g filter="url(#filter2_f_828_5178)">
<path d="M508.903 250.62C868.854 450.501 1232.29 828.806 1378.9 846.12C1641.4 877.12 1603.02 159.918 1325.4 -96.3797C1064.9 -336.879 -743.323 -583.09 -299.597 -96.3799C-63.5264 162.559 202.567 80.5119 508.903 250.62Z" fill="#804AE9"/>
</g>
<g filter="url(#filter3_f_828_5178)">
<path d="M692.903 81.6201C1052.85 281.501 1416.29 659.806 1562.9 677.12C1825.4 708.12 1787.02 -9.08166 1509.4 -265.38C1248.9 -505.879 -559.323 -752.09 -115.597 -265.38C120.474 -6.44118 386.567 -88.4881 692.903 81.6201Z" fill="#CF00A3"/>
</g>
<g filter="url(#filter4_f_828_5178)">
<path d="M552.697 -283.39C472.875 -198.206 957.174 356.65 1265.94 562.68C1574.7 768.711 1550.5 283.502 1290.56 36.6679C1074.21 -168.778 632.518 -368.574 552.697 -283.39Z" fill="#FF8993"/>
<path d="M552.697 -283.39C472.875 -198.206 957.174 356.65 1265.94 562.68C1574.7 768.711 1550.5 283.502 1290.56 36.6679C1074.21 -168.778 632.518 -368.574 552.697 -283.39Z" stroke="#FF1D74" stroke-width="74"/>
</g>
</g>
<g opacity="0.5">
<g filter="url(#filter5_f_828_5178)">
<path d="M-754.58 3700.26C-894.745 3799.54 -895.755 3937.81 -808.268 4061.33C-625.714 4319.08 676.464 3534.41 711.589 3186.76C737.402 2931.27 562.201 2721.34 361.116 2745.15C133.87 2772.07 46.7239 2861.87 -64.4558 3046.57C-157.222 3200.68 -161.736 3287.15 -274.33 3441.45C-379.718 3585.87 -630.078 3612.08 -754.58 3700.26Z" fill="#BADAFF"/>
</g>
<circle cx="167.069" cy="167.069" r="167.069" transform="matrix(-0.420792 0.907157 0.907157 0.420792 -142.376 3075.11)" fill="url(#paint0_radial_828_5178)"/>
<g opacity="0.54" filter="url(#filter6_f_828_5178)">
<ellipse cx="-309.467" cy="3471.78" rx="515.859" ry="376.822" transform="rotate(180 -309.467 3471.78)" fill="#4D3589"/>
<path d="M-309.467 2994.96C-470.856 2994.96 -621 3042.61 -733.22 3124.58C-845.363 3206.5 -925.326 3328.04 -925.326 3471.78C-925.326 3615.52 -845.363 3737.07 -733.22 3818.99C-621 3900.96 -470.856 3948.61 -309.467 3948.61C-148.078 3948.61 2.06673 3900.96 114.287 3818.99C226.43 3737.07 306.392 3615.52 306.392 3471.78C306.392 3328.04 226.43 3206.5 114.287 3124.58C2.06673 3042.61 -148.078 2994.96 -309.467 2994.96Z" stroke="#9167FF" stroke-width="200"/>
</g>
<g opacity="0.58" filter="url(#filter7_f_828_5178)">
<ellipse cx="1566.68" cy="4092.14" rx="651.829" ry="344.872" transform="rotate(-169.459 1566.68 4092.14)" fill="#0025CE"/>
</g>
<circle cx="160.44" cy="160.44" r="160.44" transform="matrix(1 -8.74228e-08 -8.74228e-08 -1 1319 2233.88)" fill="url(#paint1_radial_828_5178)"/>
<g opacity="0.57" filter="url(#filter8_f_828_5178)">
<path d="M562.436 4223.78C1121.69 4253.29 1293.93 4780.28 1488.44 4765.28C1732.94 4746.42 1687.38 4252.12 1488.44 4063.78C1253.94 3841.78 183.435 4203.78 562.436 4223.78Z" fill="#00EAFF"/>
</g>
<g opacity="0.5" filter="url(#filter9_f_828_5178)">
<path d="M370.96 4312.19C415.767 4389.8 731.137 4384.55 851.261 4317.02C971.384 4249.48 704.951 4050.97 563.612 4075.94C445.973 4096.73 326.153 4234.58 370.96 4312.19Z" fill="#FF8993"/>
<path d="M370.96 4312.19C415.767 4389.8 731.137 4384.55 851.261 4317.02C971.384 4249.48 704.951 4050.97 563.612 4075.94C445.973 4096.73 326.153 4234.58 370.96 4312.19Z" stroke="#FF1D74" stroke-width="74"/>
</g>
<g style="mix-blend-mode:screen" opacity="0.87" filter="url(#filter10_f_828_5178)">
<ellipse cx="539.458" cy="4378.77" rx="295.5" ry="265" transform="rotate(180 539.458 4378.77)" fill="#303E57"/>
</g>
</g>
<circle cx="1408.26" cy="3539.26" r="126.088" transform="rotate(85.1695 1408.26 3539.26)" fill="url(#paint2_radial_828_5178)"/>
<g opacity="0.5">
<g filter="url(#filter11_f_828_5178)">
<ellipse cx="1208.65" cy="1847.47" rx="495.003" ry="440.963" fill="url(#paint3_radial_828_5178)"/>
</g>
<g opacity="0.9" filter="url(#filter12_f_828_5178)">
<path d="M991.352 1946.29C1117.38 1949.93 1216.12 2071.9 1211.89 2218.72C1207.66 2365.55 1102.07 2481.63 976.035 2478C850.003 2474.37 944.11 2292.14 755.493 2205.58C405.953 2045.16 865.32 1942.66 991.352 1946.29Z" fill="#BADAFF"/>
</g>
<g filter="url(#filter13_f_828_5178)">
<ellipse cx="140.755" cy="1614.97" rx="651.829" ry="344.872" transform="rotate(10.5409 140.755 1614.97)" fill="#0025CE"/>
</g>
<circle cx="6.93591" cy="931.074" r="203.545" transform="rotate(15 6.93591 931.074)" fill="url(#paint4_radial_828_5178)"/>
<g style="mix-blend-mode:lighten" filter="url(#filter14_f_828_5178)">
<path d="M493.304 1542.81C-65.954 1513.3 -238.196 986.314 -432.696 1001.31C-677.196 1020.17 -631.64 1514.47 -432.696 1702.81C-198.196 1924.81 872.304 1562.81 493.304 1542.81Z" fill="#00EAFF"/>
</g>
<g opacity="0.95" filter="url(#filter15_f_828_5178)">
<path d="M110.123 1575.97C-61.6365 1575.97 -142.377 1667.3 -142.377 1790.47C-142.377 2047.47 1373.79 2138.85 1603.39 1924.52C1772.12 1767.02 1750.48 1545.22 1572.62 1466.47C1371.62 1377.47 1248.6 1396.12 1051.12 1466.47C886.351 1525.17 832.687 1580.47 651.623 1629.97C482.148 1676.3 262.69 1575.97 110.123 1575.97Z" fill="#BADAFF"/>
</g>
<g filter="url(#filter16_f_828_5178)">
<ellipse cx="-209.68" cy="1309.5" rx="283.241" ry="244.656" fill="#303E57"/>
</g>
</g>
<g opacity="0.8">
<mask id="mask0_828_5178" style="mask-type:luminance" maskUnits="userSpaceOnUse" x="1046" y="-126" width="680" height="680">
<circle cx="1386.06" cy="214.059" r="339.715" transform="rotate(150 1386.06 214.059)" fill="white"/>
</mask>
<g mask="url(#mask0_828_5178)">
<circle cx="1386.06" cy="214.059" r="339.715" transform="rotate(150 1386.06 214.059)" fill="url(#paint5_radial_828_5178)"/>
<g style="mix-blend-mode:soft-light">
<rect x="1602.57" y="589.061" width="389.954" height="382.777" transform="rotate(150 1602.57 589.061)" fill="url(#paint6_radial_828_5178)" fill-opacity="0.5"/>
</g>
<g style="mix-blend-mode:soft-light">
<rect x="1841.89" y="22.7085" width="543.065" height="533.496" transform="rotate(150 1841.89 22.7085)" fill="url(#paint7_radial_828_5178)" fill-opacity="0.5"/>
</g>
</g>
</g>
<g style="mix-blend-mode:luminosity" opacity="0.15">
<circle cx="719.999" cy="4688.42" r="453.443" transform="rotate(150 719.999 4688.42)" fill="url(#paint8_radial_828_5178)"/>
<circle cx="719.999" cy="4688.42" r="453.443" transform="rotate(150 719.999 4688.42)" fill="url(#paint9_radial_828_5178)"/>
<circle cx="719.999" cy="4688.42" r="453.443" transform="rotate(150 719.999 4688.42)" fill="url(#paint10_radial_828_5178)"/>
<mask id="mask1_828_5178" style="mask-type:luminance" maskUnits="userSpaceOnUse" x="266" y="4234" width="908" height="908">
<circle cx="719.998" cy="4688.42" r="453.443" transform="rotate(150 719.998 4688.42)" fill="white"/>
</mask>
<g mask="url(#mask1_828_5178)">
<circle cx="719.998" cy="4688.42" r="453.443" transform="rotate(150 719.998 4688.42)" fill="url(#paint11_radial_828_5178)"/>
<rect x="706.306" y="4224.03" width="1083.77" height="991.926" transform="rotate(93.4783 706.306 4224.03)" fill="url(#paint12_radial_828_5178)"/>
<g style="mix-blend-mode:soft-light">
<rect x="1328.42" y="4433.01" width="724.87" height="712.097" transform="rotate(150 1328.42 4433.01)" fill="url(#paint13_radial_828_5178)" fill-opacity="0.5"/>
</g>
</g>
<circle cx="720.011" cy="4688.44" r="290.203" transform="rotate(150 720.011 4688.44)" fill="url(#paint14_radial_828_5178)"/>
<circle cx="720.011" cy="4688.44" r="290.203" transform="rotate(150 720.011 4688.44)" fill="url(#paint15_radial_828_5178)"/>
<circle cx="720.011" cy="4688.44" r="290.203" transform="rotate(150 720.011 4688.44)" fill="url(#paint16_radial_828_5178)"/>
<mask id="mask2_828_5178" style="mask-type:luminance" maskUnits="userSpaceOnUse" x="429" y="4398" width="582" height="581">
<circle cx="720.012" cy="4688.44" r="290.203" transform="rotate(150 720.012 4688.44)" fill="white"/>
</mask>
<g mask="url(#mask2_828_5178)">
<circle cx="720.012" cy="4688.44" r="290.203" transform="rotate(150 720.012 4688.44)" fill="url(#paint17_radial_828_5178)"/>
<rect x="711.251" y="4391.24" width="693.616" height="634.833" transform="rotate(93.4783 711.251 4391.24)" fill="url(#paint18_radial_828_5178)"/>
<g style="mix-blend-mode:soft-light">
<rect x="1109.41" y="4524.98" width="463.917" height="455.742" transform="rotate(150 1109.41 4524.98)" fill="url(#paint19_radial_828_5178)" fill-opacity="0.5"/>
</g>
</g>
<circle cx="720.008" cy="4688.43" r="126.964" transform="rotate(150 720.008 4688.43)" fill="url(#paint20_radial_828_5178)"/>
<circle cx="720.008" cy="4688.43" r="126.964" transform="rotate(150 720.008 4688.43)" fill="url(#paint21_radial_828_5178)"/>
<circle cx="720.008" cy="4688.43" r="126.964" transform="rotate(150 720.008 4688.43)" fill="url(#paint22_radial_828_5178)"/>
<mask id="mask3_828_5178" style="mask-type:luminance" maskUnits="userSpaceOnUse" x="593" y="4561" width="254" height="255">
<circle cx="720.008" cy="4688.43" r="126.964" transform="rotate(150 720.008 4688.43)" fill="white"/>
</mask>
<g mask="url(#mask3_828_5178)">
<circle cx="720.008" cy="4688.43" r="126.964" transform="rotate(150 720.008 4688.43)" fill="url(#paint23_radial_828_5178)"/>
<rect x="716.168" y="4558.41" width="303.457" height="277.739" transform="rotate(93.4783 716.168 4558.41)" fill="url(#paint24_radial_828_5178)"/>
<g style="mix-blend-mode:soft-light">
<rect x="890.366" y="4616.91" width="202.964" height="199.387" transform="rotate(150 890.366 4616.91)" fill="url(#paint25_radial_828_5178)" fill-opacity="0.5"/>
</g>
</g>
</g>
</g>
<defs>
<filter id="filter0_f_828_5178" x="748.822" y="1728.05" width="1191" height="1130" filterUnits="userSpaceOnUse" color-interpolation-filters="sRGB">
<feFlood flood-opacity="0" result="BackgroundImageFix"/>
<feBlend mode="normal" in="SourceGraphic" in2="BackgroundImageFix" result="shape"/>
<feGaussianBlur stdDeviation="150" result="effect1_foregroundBlur_828_5178"/>
</filter>
<filter id="filter1_f_828_5178" x="306.008" y="1522.11" width="1341.74" height="1444.46" filterUnits="userSpaceOnUse" color-interpolation-filters="sRGB">
<feFlood flood-opacity="0" result="BackgroundImageFix"/>
<feBlend mode="normal" in="SourceGraphic" in2="BackgroundImageFix" result="shape"/>
<feGaussianBlur stdDeviation="100" result="effect1_foregroundBlur_828_5178"/>
</filter>
<filter id="filter2_f_828_5178" x="-619.351" y="-626.5" width="2425.51" height="1723.59" filterUnits="userSpaceOnUse" color-interpolation-filters="sRGB">
<feFlood flood-opacity="0" result="BackgroundImageFix"/>
<feBlend mode="normal" in="SourceGraphic" in2="BackgroundImageFix" result="shape"/>
<feGaussianBlur stdDeviation="125" result="effect1_foregroundBlur_828_5178"/>
</filter>
<filter id="filter3_f_828_5178" x="-485.351" y="-845.5" width="2525.51" height="1823.59" filterUnits="userSpaceOnUse" color-interpolation-filters="sRGB">
<feFlood flood-opacity="0" result="BackgroundImageFix"/>
<feBlend mode="normal" in="SourceGraphic" in2="BackgroundImageFix" result="shape"/>
<feGaussianBlur stdDeviation="150" result="effect1_foregroundBlur_828_5178"/>
</filter>
<filter id="filter4_f_828_5178" x="356.961" y="-490.539" width="1321.55" height="1290.02" filterUnits="userSpaceOnUse" color-interpolation-filters="sRGB">
<feFlood flood-opacity="0" result="BackgroundImageFix"/>
<feBlend mode="normal" in="SourceGraphic" in2="BackgroundImageFix" result="shape"/>
<feGaussianBlur stdDeviation="75" result="effect1_foregroundBlur_828_5178"/>
</filter>
<filter id="filter5_f_828_5178" x="-1068.04" y="2543.31" width="1982.16" height="1769.07" filterUnits="userSpaceOnUse" color-interpolation-filters="sRGB">
<feFlood flood-opacity="0" result="BackgroundImageFix"/>
<feBlend mode="normal" in="SourceGraphic" in2="BackgroundImageFix" result="shape"/>
<feGaussianBlur stdDeviation="100" result="effect1_foregroundBlur_828_5178"/>
</filter>
<filter id="filter6_f_828_5178" x="-1337.83" y="2582.46" width="2056.72" height="1778.64" filterUnits="userSpaceOnUse" color-interpolation-filters="sRGB">
<feFlood flood-opacity="0" result="BackgroundImageFix"/>
<feBlend mode="normal" in="SourceGraphic" in2="BackgroundImageFix" result="shape"/>
<feGaussianBlur stdDeviation="156.25" result="effect1_foregroundBlur_828_5178"/>
</filter>
<filter id="filter7_f_828_5178" x="522.701" y="3332.64" width="2087.95" height="1519.02" filterUnits="userSpaceOnUse" color-interpolation-filters="sRGB">
<feFlood flood-opacity="0" result="BackgroundImageFix"/>
<feBlend mode="normal" in="SourceGraphic" in2="BackgroundImageFix" result="shape"/>
<feGaussianBlur stdDeviation="200" result="effect1_foregroundBlur_828_5178"/>
</filter>
<filter id="filter8_f_828_5178" x="282" y="3792" width="1573.16" height="1173.59" filterUnits="userSpaceOnUse" color-interpolation-filters="sRGB">
<feFlood flood-opacity="0" result="BackgroundImageFix"/>
<feBlend mode="normal" in="SourceGraphic" in2="BackgroundImageFix" result="shape"/>
<feGaussianBlur stdDeviation="100" result="effect1_foregroundBlur_828_5178"/>
</filter>
<filter id="filter9_f_828_5178" x="174.349" y="3886.78" width="894.208" height="669.248" filterUnits="userSpaceOnUse" color-interpolation-filters="sRGB">
<feFlood flood-opacity="0" result="BackgroundImageFix"/>
<feBlend mode="normal" in="SourceGraphic" in2="BackgroundImageFix" result="shape"/>
<feGaussianBlur stdDeviation="75" result="effect1_foregroundBlur_828_5178"/>
</filter>
<filter id="filter10_f_828_5178" x="-56.0415" y="3813.77" width="1191" height="1130" filterUnits="userSpaceOnUse" color-interpolation-filters="sRGB">
<feFlood flood-opacity="0" result="BackgroundImageFix"/>
<feBlend mode="normal" in="SourceGraphic" in2="BackgroundImageFix" result="shape"/>
<feGaussianBlur stdDeviation="150" result="effect1_foregroundBlur_828_5178"/>
</filter>
<filter id="filter11_f_828_5178" x="367.646" y="1060.51" width="1682.01" height="1573.93" filterUnits="userSpaceOnUse" color-interpolation-filters="sRGB">
<feFlood flood-opacity="0" result="BackgroundImageFix"/>
<feBlend mode="normal" in="SourceGraphic" in2="BackgroundImageFix" result="shape"/>
<feGaussianBlur stdDeviation="173" result="effect1_foregroundBlur_828_5178"/>
</filter>
<filter id="filter12_f_828_5178" x="426.767" y="1746.2" width="985.259" height="931.885" filterUnits="userSpaceOnUse" color-interpolation-filters="sRGB">
<feFlood flood-opacity="0" result="BackgroundImageFix"/>
<feBlend mode="normal" in="SourceGraphic" in2="BackgroundImageFix" result="shape"/>
<feGaussianBlur stdDeviation="100" result="effect1_foregroundBlur_828_5178"/>
</filter>
<filter id="filter13_f_828_5178" x="-903.219" y="855.461" width="2087.95" height="1519.02" filterUnits="userSpaceOnUse" color-interpolation-filters="sRGB">
<feFlood flood-opacity="0" result="BackgroundImageFix"/>
<feBlend mode="normal" in="SourceGraphic" in2="BackgroundImageFix" result="shape"/>
<feGaussianBlur stdDeviation="200" result="effect1_foregroundBlur_828_5178"/>
</filter>
<filter id="filter14_f_828_5178" x="-799.424" y="801" width="1573.16" height="1173.59" filterUnits="userSpaceOnUse" color-interpolation-filters="sRGB">
<feFlood flood-opacity="0" result="BackgroundImageFix"/>
<feBlend mode="normal" in="SourceGraphic" in2="BackgroundImageFix" result="shape"/>
<feGaussianBlur stdDeviation="100" result="effect1_foregroundBlur_828_5178"/>
</filter>
<filter id="filter15_f_828_5178" x="-342.377" y="1206.51" width="2261.1" height="1037.62" filterUnits="userSpaceOnUse" color-interpolation-filters="sRGB">
<feFlood flood-opacity="0" result="BackgroundImageFix"/>
<feBlend mode="normal" in="SourceGraphic" in2="BackgroundImageFix" result="shape"/>
<feGaussianBlur stdDeviation="100" result="effect1_foregroundBlur_828_5178"/>
</filter>
<filter id="filter16_f_828_5178" x="-792.921" y="764.84" width="1166.48" height="1089.31" filterUnits="userSpaceOnUse" color-interpolation-filters="sRGB">
<feFlood flood-opacity="0" result="BackgroundImageFix"/>
<feBlend mode="normal" in="SourceGraphic" in2="BackgroundImageFix" result="shape"/>
<feGaussianBlur stdDeviation="150" result="effect1_foregroundBlur_828_5178"/>
</filter>
<radialGradient id="paint0_radial_828_5178" cx="0" cy="0" r="1" gradientUnits="userSpaceOnUse" gradientTransform="translate(177.658 143.538) rotate(106.479) scale(190.789 183.445)">
<stop offset="0.619792" stop-color="white" stop-opacity="0"/>
<stop offset="0.796875" stop-color="white" stop-opacity="0"/>
<stop offset="1" stop-color="white"/>
</radialGradient>
<radialGradient id="paint1_radial_828_5178" cx="0" cy="0" r="1" gradientUnits="userSpaceOnUse" gradientTransform="translate(170.609 137.843) rotate(106.479) scale(183.219 176.166)">
<stop offset="0.619792" stop-color="white" stop-opacity="0"/>
<stop offset="0.796875" stop-color="white" stop-opacity="0"/>
<stop offset="1" stop-color="white"/>
</radialGradient>
<radialGradient id="paint2_radial_828_5178" cx="0" cy="0" r="1" gradientUnits="userSpaceOnUse" gradientTransform="translate(1416.25 3521.5) rotate(106.479) scale(143.99 138.447)">
<stop offset="0.619792" stop-color="white" stop-opacity="0"/>
<stop offset="0.796875" stop-color="white" stop-opacity="0"/>
<stop offset="1" stop-color="white"/>
</radialGradient>
<radialGradient id="paint3_radial_828_5178" cx="0" cy="0" r="1" gradientUnits="userSpaceOnUse" gradientTransform="translate(1234.25 1907.29) rotate(157.283) scale(326.005 361.105)">
<stop stop-color="#4D3589"/>
<stop offset="1" stop-color="#7B4DEE"/>
</radialGradient>
<radialGradient id="paint4_radial_828_5178" cx="0" cy="0" r="1" gradientUnits="userSpaceOnUse" gradientTransform="translate(19.8366 902.406) rotate(106.479) scale(232.444 223.497)">
<stop offset="0.619792" stop-color="white" stop-opacity="0"/>
<stop offset="0.796875" stop-color="white" stop-opacity="0"/>
<stop offset="1" stop-color="white"/>
</radialGradient>
<radialGradient id="paint5_radial_828_5178" cx="0" cy="0" r="1" gradientUnits="userSpaceOnUse" gradientTransform="translate(1407.59 166.212) rotate(106.479) scale(387.948 373.014)">
<stop offset="0.619792" stop-color="white" stop-opacity="0"/>
<stop offset="0.796875" stop-color="white" stop-opacity="0"/>
<stop offset="1" stop-color="white"/>
</radialGradient>
<radialGradient id="paint6_radial_828_5178" cx="0" cy="0" r="1" gradientUnits="userSpaceOnUse" gradientTransform="translate(1797.54 780.45) rotate(90) scale(191.389 196.316)">
<stop stop-color="#A9A9A9"/>
<stop offset="1" stop-color="#7E7E7E" stop-opacity="0"/>
</radialGradient>
<radialGradient id="paint7_radial_828_5178" cx="0" cy="0" r="1" gradientUnits="userSpaceOnUse" gradientTransform="translate(2113.42 289.456) rotate(90) scale(266.748 273.398)">
<stop stop-color="#FFFBA6"/>
<stop offset="1" stop-color="white" stop-opacity="0"/>
</radialGradient>
<radialGradient id="paint8_radial_828_5178" cx="0" cy="0" r="1" gradientUnits="userSpaceOnUse" gradientTransform="translate(807.814 4602.2) rotate(99.2423) scale(546.759)">
<stop stop-color="#31B5FF"/>
<stop offset="1" stop-color="#FF87C8"/>
</radialGradient>
<radialGradient id="paint9_radial_828_5178" cx="0" cy="0" r="1" gradientUnits="userSpaceOnUse" gradientTransform="translate(547.563 4439.34) rotate(60.5646) scale(513.321)">
<stop stop-color="#5200FF"/>
<stop offset="1" stop-color="white" stop-opacity="0"/>
</radialGradient>
<radialGradient id="paint10_radial_828_5178" cx="0" cy="0" r="1" gradientUnits="userSpaceOnUse" gradientTransform="translate(1173.44 4535.14) rotate(123.521) scale(300.68 361.909)">
<stop stop-color="white"/>
<stop offset="1" stop-color="white" stop-opacity="0"/>
</radialGradient>
<radialGradient id="paint11_radial_828_5178" cx="0" cy="0" r="1" gradientUnits="userSpaceOnUse" gradientTransform="translate(748.738 4624.55) rotate(106.479) scale(517.823 497.889)">
<stop offset="0.619792" stop-color="white" stop-opacity="0"/>
<stop offset="0.796875" stop-color="white" stop-opacity="0"/>
<stop offset="1" stop-color="white"/>
</radialGradient>
<radialGradient id="paint12_radial_828_5178" cx="0" cy="0" r="1" gradientUnits="userSpaceOnUse" gradientTransform="translate(1248.19 4719.99) rotate(90) scale(495.963 545.609)">
<stop stop-color="#FFE600"/>
<stop offset="1" stop-color="#FFE600" stop-opacity="0"/>
</radialGradient>
<radialGradient id="paint13_radial_828_5178" cx="0" cy="0" r="1" gradientUnits="userSpaceOnUse" gradientTransform="translate(1690.86 4789.06) rotate(90) scale(356.049 364.924)">
<stop stop-color="white"/>
<stop offset="1" stop-color="white" stop-opacity="0"/>
</radialGradient>
<radialGradient id="paint14_radial_828_5178" cx="0" cy="0" r="1" gradientUnits="userSpaceOnUse" gradientTransform="translate(776.213 4633.26) rotate(99.2423) scale(349.926)">
<stop stop-color="#31B5FF"/>
<stop offset="1" stop-color="#FF87C8"/>
</radialGradient>
<radialGradient id="paint15_radial_828_5178" cx="0" cy="0" r="1" gradientUnits="userSpaceOnUse" gradientTransform="translate(609.652 4529.03) rotate(60.5646) scale(328.525)">
<stop stop-color="#5200FF"/>
<stop offset="1" stop-color="white" stop-opacity="0"/>
</radialGradient>
<radialGradient id="paint16_radial_828_5178" cx="0" cy="0" r="1" gradientUnits="userSpaceOnUse" gradientTransform="translate(1010.21 4590.34) rotate(123.521) scale(192.435 231.622)">
<stop stop-color="white"/>
<stop offset="1" stop-color="white" stop-opacity="0"/>
</radialGradient>
<radialGradient id="paint17_radial_828_5178" cx="0" cy="0" r="1" gradientUnits="userSpaceOnUse" gradientTransform="translate(738.405 4647.56) rotate(106.479) scale(331.407 318.649)">
<stop offset="0.619792" stop-color="white" stop-opacity="0"/>
<stop offset="0.796875" stop-color="white" stop-opacity="0"/>
<stop offset="1" stop-color="white"/>
</radialGradient>
<radialGradient id="paint18_radial_828_5178" cx="0" cy="0" r="1" gradientUnits="userSpaceOnUse" gradientTransform="translate(1058.06 4708.65) rotate(90) scale(317.416 349.19)">
<stop stop-color="#FFE600"/>
<stop offset="1" stop-color="#FFE600" stop-opacity="0"/>
</radialGradient>
<radialGradient id="paint19_radial_828_5178" cx="0" cy="0" r="1" gradientUnits="userSpaceOnUse" gradientTransform="translate(1341.37 4752.85) rotate(90) scale(227.871 233.552)">
<stop stop-color="white"/>
<stop offset="1" stop-color="white" stop-opacity="0"/>
</radialGradient>
<radialGradient id="paint20_radial_828_5178" cx="0" cy="0" r="1" gradientUnits="userSpaceOnUse" gradientTransform="translate(744.596 4664.29) rotate(99.2423) scale(153.093)">
<stop stop-color="#31B5FF"/>
<stop offset="1" stop-color="#FF87C8"/>
</radialGradient>
<radialGradient id="paint21_radial_828_5178" cx="0" cy="0" r="1" gradientUnits="userSpaceOnUse" gradientTransform="translate(671.726 4618.69) rotate(60.5646) scale(143.73)">
<stop stop-color="#5200FF"/>
<stop offset="1" stop-color="white" stop-opacity="0"/>
</radialGradient>
<radialGradient id="paint22_radial_828_5178" cx="0" cy="0" r="1" gradientUnits="userSpaceOnUse" gradientTransform="translate(846.972 4645.51) rotate(123.521) scale(84.1904 101.335)">
<stop stop-color="white"/>
<stop offset="1" stop-color="white" stop-opacity="0"/>
</radialGradient>
<radialGradient id="paint23_radial_828_5178" cx="0" cy="0" r="1" gradientUnits="userSpaceOnUse" gradientTransform="translate(728.055 4670.55) rotate(106.479) scale(144.99 139.409)">
<stop offset="0.619792" stop-color="white" stop-opacity="0"/>
<stop offset="0.796875" stop-color="white" stop-opacity="0"/>
<stop offset="1" stop-color="white"/>
</radialGradient>
<radialGradient id="paint24_radial_828_5178" cx="0" cy="0" r="1" gradientUnits="userSpaceOnUse" gradientTransform="translate(867.896 4697.28) rotate(90) scale(138.87 152.771)">
<stop stop-color="#FFE600"/>
<stop offset="1" stop-color="#FFE600" stop-opacity="0"/>
</radialGradient>
<radialGradient id="paint25_radial_828_5178" cx="0" cy="0" r="1" gradientUnits="userSpaceOnUse" gradientTransform="translate(991.848 4716.6) rotate(90) scale(99.6936 102.179)">
<stop stop-color="white"/>
<stop offset="1" stop-color="white" stop-opacity="0"/>
</radialGradient>
<clipPath id="clip0_828_5178">
<rect width="1440" height="4630" fill="white"/>
</clipPath>
</defs>
</svg>
