<svg width="176" height="48" viewBox="0 0 176 48" fill="none" xmlns="http://www.w3.org/2000/svg">
<mask id="mask0_828_5294" style="mask-type:luminance" maskUnits="userSpaceOnUse" x="0" y="4" width="40" height="40">
<ellipse cx="19.9999" cy="24" rx="19.9999" ry="20" fill="white"/>
</mask>
<g mask="url(#mask0_828_5294)">
<ellipse cx="19.9999" cy="24" rx="19.9999" ry="20" fill="url(#paint0_radial_828_5294)"/>
<g style="mix-blend-mode:soft-light">
<rect x="20.0001" y="-1.49512" width="22.9577" height="22.5352" fill="url(#paint1_radial_828_5294)" fill-opacity="0.5"/>
</g>
<g style="mix-blend-mode:soft-light">
<rect x="-8.87366" y="20.3369" width="31.9717" height="31.4084" fill="url(#paint2_radial_828_5294)" fill-opacity="0.5"/>
</g>
</g>
<mask id="mask1_828_5294" style="mask-type:luminance" maskUnits="userSpaceOnUse" x="7" y="11" width="26" height="26">
<ellipse cx="20.0013" cy="23.9982" rx="12.8" ry="12.8" fill="white"/>
</mask>
<g mask="url(#mask1_828_5294)">
<ellipse cx="20.0013" cy="23.9982" rx="12.8" ry="12.8" fill="url(#paint3_radial_828_5294)"/>
<g style="mix-blend-mode:soft-light">
<rect x="20.0022" y="7.68262" width="14.6929" height="14.4225" fill="url(#paint4_radial_828_5294)" fill-opacity="0.5"/>
</g>
<g style="mix-blend-mode:soft-light">
<rect x="1.52173" y="21.6543" width="20.4619" height="20.1014" fill="url(#paint5_radial_828_5294)" fill-opacity="0.5"/>
</g>
</g>
<mask id="mask2_828_5294" style="mask-type:luminance" maskUnits="userSpaceOnUse" x="14" y="18" width="12" height="12">
<ellipse cx="19.9995" cy="23.9994" rx="5.59998" ry="5.6" fill="white"/>
</mask>
<g mask="url(#mask2_828_5294)">
<ellipse cx="19.9995" cy="23.9994" rx="5.59998" ry="5.6" fill="url(#paint6_radial_828_5294)"/>
<g style="mix-blend-mode:soft-light">
<rect x="19.9993" y="16.8604" width="6.42815" height="6.30986" fill="url(#paint7_radial_828_5294)" fill-opacity="0.5"/>
</g>
<g style="mix-blend-mode:soft-light">
<rect x="11.9163" y="22.9736" width="8.95209" height="8.79436" fill="url(#paint8_radial_828_5294)" fill-opacity="0.5"/>
</g>
</g>
<path d="M92.5336 36.2157C92.0278 36.5153 91.3269 36.6637 90.4309 36.6637C89.6723 36.6637 89.0703 36.4521 88.6223 36.0261C88.1743 35.6028 87.9516 34.9074 87.9516 33.9426C87.1463 34.9074 86.2118 35.6028 85.1426 36.0261C84.0734 36.4521 82.919 36.6637 81.6794 36.6637C80.874 36.6637 80.1127 36.5703 79.387 36.3889C78.6642 36.2047 78.0375 35.9189 77.5097 35.5286C76.982 35.1383 76.5615 34.627 76.2509 33.9949C75.9403 33.3627 75.7864 32.5986 75.7864 31.7025C75.7864 30.691 75.9595 29.8637 76.3031 29.2205C76.6467 28.5774 77.1002 28.0551 77.6637 27.6511C78.2271 27.2498 78.8703 26.9447 79.5932 26.7386C80.3161 26.5324 81.0582 26.3592 81.8168 26.2218C82.6194 26.0624 83.3835 25.9415 84.1091 25.859C84.832 25.7793 85.4697 25.6639 86.0221 25.5154C86.5746 25.367 87.0089 25.1471 87.3305 24.8613C87.652 24.5754 87.8115 24.1549 87.8115 23.6024C87.8115 22.9592 87.6905 22.4425 87.4487 22.0522C87.2068 21.6619 86.8962 21.3623 86.5196 21.1561C86.1403 20.95 85.7143 20.8126 85.2443 20.7439C84.7743 20.6751 84.307 20.6394 83.848 20.6394C82.6084 20.6394 81.5722 20.8758 80.7476 21.3458C79.9203 21.8158 79.4722 22.7064 79.4035 24.0174H76.4735C76.5203 22.9153 76.7484 21.9835 77.1634 21.2249C77.5757 20.4662 78.1282 19.8533 78.8181 19.3806C79.508 18.9105 80.2941 18.5697 81.1791 18.3636C82.0642 18.1574 83.0097 18.053 84.0212 18.053C84.8237 18.053 85.6236 18.1107 86.4152 18.2261C87.2068 18.3416 87.9269 18.5752 88.5701 18.9298C89.2133 19.2844 89.73 19.7846 90.1203 20.425C90.5106 21.0654 90.7057 21.9038 90.7057 22.9345V32.0818C90.7057 32.769 90.7442 33.2747 90.8267 33.5936C90.9064 33.9151 91.1757 34.0746 91.6375 34.0746C91.8904 34.0746 92.19 34.0278 92.5336 33.9371V36.2102V36.2157ZM87.7785 27.0821C87.4102 27.357 86.9292 27.5576 86.33 27.6813C85.7335 27.8078 85.1069 27.9095 84.4527 27.9892C83.7985 28.0689 83.1361 28.1596 82.471 28.264C81.8058 28.3657 81.2066 28.5334 80.6789 28.7615C80.1511 28.9897 79.7196 29.3167 79.387 29.74C79.0545 30.1633 78.8868 30.7405 78.8868 31.4716C78.8868 31.9526 78.983 32.3567 79.1809 32.6893C79.376 33.0219 79.6289 33.2885 79.9395 33.4946C80.2501 33.7008 80.6102 33.8492 81.0252 33.9399C81.4375 34.0306 81.8745 34.0773 82.3335 34.0773C83.2983 34.0773 84.1256 33.9454 84.8155 33.6843C85.5054 33.4204 86.0689 33.0906 86.5031 32.6893C86.9402 32.288 87.2617 31.8537 87.4679 31.3864C87.674 30.9192 87.7785 30.4766 87.7785 30.0671V27.0849V27.0821Z" fill="black"/>
<path d="M110.045 11.6797V20.882H110.114C110.595 19.8953 111.353 19.1751 112.387 18.7271C113.42 18.2791 114.558 18.0537 115.798 18.0537C117.175 18.0537 118.376 18.3066 119.398 18.8123C120.421 19.318 121.27 20.0024 121.949 20.8628C122.625 21.7231 123.139 22.7181 123.483 23.8422C123.826 24.9692 124 26.1621 124 27.4264C124 28.6908 123.832 29.8837 123.499 31.0106C123.167 32.1375 122.661 33.1188 121.982 33.9571C121.303 34.7954 120.454 35.4551 119.431 35.9388C118.409 36.4226 117.222 36.6617 115.864 36.6617C115.427 36.6617 114.937 36.615 114.399 36.5243C113.86 36.4336 113.324 36.2824 112.796 36.0763C112.269 35.8701 111.768 35.587 111.298 35.2324C110.828 34.8779 110.43 34.4353 110.108 33.9049H110.039V36.2824H107.109V11.6797H110.039H110.045ZM120.572 24.7933C120.355 24.0017 120.02 23.2953 119.572 22.6741C119.124 22.0529 118.549 21.5609 117.848 21.1926C117.147 20.8243 116.326 20.6401 115.386 20.6401C114.399 20.6401 113.558 20.8353 112.871 21.2256C112.181 21.6159 111.617 22.1271 111.183 22.7593C110.746 23.3915 110.43 24.1089 110.235 24.9142C110.039 25.7195 109.941 26.5331 109.941 27.3605C109.941 28.2345 110.045 29.0783 110.251 29.8919C110.457 30.7082 110.784 31.4256 111.232 32.0468C111.68 32.668 112.26 33.1655 112.972 33.5448C113.684 33.9241 114.544 34.1138 115.556 34.1138C116.567 34.1138 117.411 33.9186 118.087 33.5283C118.764 33.138 119.31 32.6213 119.726 31.9781C120.138 31.3349 120.437 30.5983 120.622 29.7737C120.806 28.9464 120.896 28.0971 120.896 27.223C120.896 26.3957 120.786 25.5849 120.569 24.7933H120.572Z" fill="black"/>
<path d="M129.887 11.6797V36.2852H126.957V11.6797H129.887Z" fill="black"/>
<path d="M136.491 21.627H133.223V33.0831H136.491V21.627Z" fill="black"/>
<path d="M149.526 21.6272H146.258V28.1634H149.526V21.6272Z" fill="black"/>
<path d="M146.258 18.3594H136.489V21.6275H146.258V18.3594Z" fill="black"/>
<path d="M146.258 24.8955H136.489V28.1636H146.258V24.8955Z" fill="black"/>
<path d="M146.258 33.0811H136.489V36.3491H146.258V33.0811Z" fill="black"/>
<path d="M149.526 29.8125H146.258V33.0806H149.526V29.8125Z" fill="black"/>
<path d="M97.9772 18.4609H94.7091V36.2774H97.9772V18.4609Z" fill="black"/>
<path d="M101.244 21.7334H97.9757V25.0015H101.244V21.7334Z" fill="black"/>
<path d="M105.359 18.4648H101.244V21.7329H105.359V18.4648Z" fill="black"/>
<path d="M97.9772 18.4609H94.7091V36.2774H97.9772V18.4609Z" fill="black"/>
<path d="M101.244 21.7334H97.9757V25.0015H101.244V21.7334Z" fill="black"/>
<path d="M105.359 18.4648H101.244V21.7329H105.359V18.4648Z" fill="black"/>
<path d="M155.891 14.9287H152.656V36.2866H155.891V14.9287Z" fill="black"/>
<path d="M159.129 11.6709H155.894V14.9087H159.129V11.6709Z" fill="black"/>
<path d="M168.572 11.6709H159.128V14.9087H168.572V11.6709Z" fill="black"/>
<path d="M159.129 21.6475H155.894V24.8853H159.129V21.6475Z" fill="black"/>
<path d="M166.033 21.6475H159.128V24.8853H166.033V21.6475Z" fill="black"/>
<path d="M171.227 15.2639V11.6797H174.157V15.2639H171.227ZM174.157 17.8342V36.2852H171.227V17.8342H174.157Z" fill="black"/>
<path d="M52.6186 11.6709L60.375 32.3557L68.1645 11.6709H72.6462V36.2848H69.5448V15.809H69.476L61.7883 36.2848H58.9948L51.3098 15.809H51.2411V36.2848H48.1368V11.6709H52.6186Z" fill="black"/>
<defs>
<radialGradient id="paint0_radial_828_5294" cx="0" cy="0" r="1" gradientUnits="userSpaceOnUse" gradientTransform="translate(21.2675 21.1831) rotate(106.479) scale(22.8396 21.9603)">
<stop offset="0.619792" stop-opacity="0"/>
<stop offset="0.796875" stop-opacity="0"/>
<stop offset="1"/>
</radialGradient>
<radialGradient id="paint1_radial_828_5294" cx="0" cy="0" r="1" gradientUnits="userSpaceOnUse" gradientTransform="translate(31.479 9.77249) rotate(90) scale(11.2676 11.5577)">
<stop/>
<stop offset="1" stop-opacity="0"/>
</radialGradient>
<radialGradient id="paint2_radial_828_5294" cx="0" cy="0" r="1" gradientUnits="userSpaceOnUse" gradientTransform="translate(7.11221 36.0411) rotate(90) scale(15.7042 16.0957)">
<stop/>
<stop offset="1" stop-opacity="0"/>
</radialGradient>
<radialGradient id="paint3_radial_828_5294" cx="0" cy="0" r="1" gradientUnits="userSpaceOnUse" gradientTransform="translate(20.8125 22.1954) rotate(106.479) scale(14.6173 14.0546)">
<stop offset="0.619792" stop-opacity="0"/>
<stop offset="0.796875" stop-opacity="0"/>
<stop offset="1"/>
</radialGradient>
<radialGradient id="paint4_radial_828_5294" cx="0" cy="0" r="1" gradientUnits="userSpaceOnUse" gradientTransform="translate(27.3487 14.8939) rotate(90) scale(7.21127 7.39691)">
<stop/>
<stop offset="1" stop-opacity="0"/>
</radialGradient>
<radialGradient id="paint5_radial_828_5294" cx="0" cy="0" r="1" gradientUnits="userSpaceOnUse" gradientTransform="translate(11.7527 31.705) rotate(90) scale(10.0507 10.3012)">
<stop/>
<stop offset="1" stop-opacity="0"/>
</radialGradient>
<radialGradient id="paint6_radial_828_5294" cx="0" cy="0" r="1" gradientUnits="userSpaceOnUse" gradientTransform="translate(20.3544 23.2107) rotate(106.479) scale(6.39509 6.1489)">
<stop offset="0.619792" stop-opacity="0"/>
<stop offset="0.796875" stop-opacity="0"/>
<stop offset="1"/>
</radialGradient>
<radialGradient id="paint7_radial_828_5294" cx="0" cy="0" r="1" gradientUnits="userSpaceOnUse" gradientTransform="translate(23.2133 20.0153) rotate(90) scale(3.15493 3.23615)">
<stop/>
<stop offset="1" stop-opacity="0"/>
</radialGradient>
<radialGradient id="paint8_radial_828_5294" cx="0" cy="0" r="1" gradientUnits="userSpaceOnUse" gradientTransform="translate(16.3923 27.3708) rotate(90) scale(4.39718 4.50679)">
<stop/>
<stop offset="1" stop-opacity="0"/>
</radialGradient>
</defs>
</svg>
