<svg width="225" height="224" viewBox="0 0 225 224" fill="none" xmlns="http://www.w3.org/2000/svg">
<circle cx="112.603" cy="111.999" r="112" fill="url(#paint0_radial_829_2507)"/>
<circle cx="112.603" cy="111.999" r="112" fill="url(#paint1_radial_829_2507)"/>
<circle cx="112.603" cy="111.999" r="112" fill="url(#paint2_radial_829_2507)"/>
<mask id="mask0_829_2507" style="mask-type:luminance" maskUnits="userSpaceOnUse" x="0" y="0" width="225" height="225">
<circle cx="112.603" cy="112.001" r="112" fill="white"/>
</mask>
<g mask="url(#mask0_829_2507)">
<circle cx="112.603" cy="112.001" r="112" fill="url(#paint3_radial_829_2507)"/>
<rect x="58.1806" y="213.028" width="267.691" height="245.005" transform="rotate(-56.5217 58.1806 213.028)" fill="url(#paint4_radial_829_2507)"/>
<g style="mix-blend-mode:soft-light">
<rect x="112.603" y="-30.7589" width="128.563" height="126.197" fill="url(#paint5_radial_829_2507)" fill-opacity="0.5"/>
</g>
<g style="mix-blend-mode:soft-light">
<rect x="-49.0867" y="91.4931" width="179.042" height="175.887" fill="url(#paint6_radial_829_2507)" fill-opacity="0.5"/>
</g>
</g>
<path d="M131.358 175.489V49.2507C158.232 57.2884 178.034 82.3469 178.034 112.133C178.034 141.92 158.232 166.979 131.358 175.489ZM112.499 27.9746V98.895L101.656 88.0205L100.241 61.0708L111.556 27.9746C104.484 27.9746 97.4123 28.9202 90.8116 30.8115L85.6254 46.8867L70.5382 39.3219C64.4091 43.1043 58.7514 46.8867 53.5652 52.0876L81.8536 66.2716L82.7966 82.3469L66.7664 81.4013L52.6222 53.0332C47.9075 58.234 43.6642 63.4348 39.8924 69.5813L47.436 84.7109L31.4059 89.9118C29.52 96.531 28.577 103.623 28.577 110.715L62.0517 99.3678L88.9257 100.786L99.7696 111.661L88.9257 122.535L62.0517 123.954L28.577 113.079C28.577 120.171 29.52 127.263 31.4059 133.882L47.436 139.083L39.8924 154.213C43.1927 160.359 47.436 166.033 52.6222 170.761L66.7664 142.393L82.7966 141.447L81.8536 157.522L53.5652 171.707C58.7514 176.435 63.9376 180.69 70.0668 184.472L85.1539 176.907L90.3402 192.983C96.9408 194.874 104.013 195.819 111.085 195.819L99.7696 162.251L101.184 135.301L112.028 124.426V195.819C158.704 195.819 196.422 157.995 196.422 111.188C196.422 64.3804 159.175 27.9746 112.499 27.9746Z" fill="white"/>
<defs>
<radialGradient id="paint0_radial_829_2507" cx="0" cy="0" r="1" gradientUnits="userSpaceOnUse" gradientTransform="translate(134.293 90.7033) rotate(99.2423) scale(135.049)">
<stop stop-color="#31B5FF"/>
<stop offset="1" stop-color="#FF87C8"/>
</radialGradient>
<radialGradient id="paint1_radial_829_2507" cx="0" cy="0" r="1" gradientUnits="userSpaceOnUse" gradientTransform="translate(70.0113 50.4779) rotate(60.5646) scale(126.79)">
<stop stop-color="#5200FF"/>
<stop offset="1" stop-color="white" stop-opacity="0"/>
</radialGradient>
<radialGradient id="paint2_radial_829_2507" cx="0" cy="0" r="1" gradientUnits="userSpaceOnUse" gradientTransform="translate(224.603 74.1399) rotate(123.521) scale(74.2676 89.3913)">
<stop stop-color="white"/>
<stop offset="1" stop-color="white" stop-opacity="0"/>
</radialGradient>
<radialGradient id="paint3_radial_829_2507" cx="0" cy="0" r="1" gradientUnits="userSpaceOnUse" gradientTransform="translate(119.702 96.2263) rotate(106.479) scale(127.902 122.978)">
<stop offset="0.619792" stop-color="white" stop-opacity="0"/>
<stop offset="0.796875" stop-color="white" stop-opacity="0"/>
<stop offset="1" stop-color="white"/>
</radialGradient>
<radialGradient id="paint4_radial_829_2507" cx="0" cy="0" r="1" gradientUnits="userSpaceOnUse" gradientTransform="translate(192.026 335.531) rotate(90) scale(122.502 134.765)">
<stop stop-color="#FFE600"/>
<stop offset="1" stop-color="#FFE600" stop-opacity="0"/>
</radialGradient>
<radialGradient id="paint5_radial_829_2507" cx="0" cy="0" r="1" gradientUnits="userSpaceOnUse" gradientTransform="translate(176.885 32.3397) rotate(90) scale(63.0986 64.7232)">
<stop stop-color="white"/>
<stop offset="1" stop-color="white" stop-opacity="0"/>
</radialGradient>
<radialGradient id="paint6_radial_829_2507" cx="0" cy="0" r="1" gradientUnits="userSpaceOnUse" gradientTransform="translate(40.4344 179.437) rotate(90) scale(87.9437 90.136)">
<stop stop-color="white"/>
<stop offset="1" stop-color="white" stop-opacity="0"/>
</radialGradient>
</defs>
</svg>
