<svg xmlns="http://www.w3.org/2000/svg" width="25" height="24" viewBox="0 0 25 24" fill="none">
    <g clip-path="url(#clip0_832_3134)">
        <path d="M15.6029 16.092C15.6989 16.2 15.6989 16.428 15.6029 16.56C14.7269 17.4 13.0949 17.472 12.6029 17.472C12.1349 17.472 10.5029 17.4 9.65091 16.56C9.53091 16.428 9.53091 16.2 9.65091 16.092C9.78291 15.972 9.98691 15.972 10.1069 16.092C10.6589 16.644 11.7989 16.8 12.6029 16.8C13.4309 16.8 14.5949 16.644 15.1229 16.092C15.2549 15.972 15.4589 15.972 15.6029 16.092ZM11.1029 13.248C11.1029 12.564 10.5389 12 9.85491 12C9.17091 12 8.60691 12.564 8.60691 13.248C8.60691 13.932 9.17091 14.508 9.85491 14.496C10.5389 14.496 11.1029 13.932 11.1029 13.248ZM15.3509 12C14.6669 12 14.1029 12.6 14.1029 13.26C14.1029 13.92 14.6669 14.508 15.3509 14.508C16.0349 14.508 16.5989 13.932 16.5989 13.26C16.5989 12.6 16.0349 12 15.3509 12ZM24.6029 12C24.6029 18.6 19.2029 24 12.6029 24C6.00291 24 0.602905 18.6 0.602905 12C0.602905 5.4 6.00291 0 12.6029 0C19.2029 0 24.6029 5.4 24.6029 12ZM20.6069 12C20.6069 11.028 19.8029 10.248 18.8669 10.248C18.3869 10.248 17.9549 10.44 17.6429 10.74C16.4429 9.876 14.7989 9.324 12.9629 9.252L13.7669 5.496L16.3709 6.06C16.3949 6.72 16.9469 7.248 17.6189 7.248C18.3029 7.248 18.8669 6.684 18.8669 6C18.8669 5.316 18.3029 4.752 17.6189 4.752C17.1269 4.752 16.6949 5.04 16.5029 5.46L13.5869 4.836C13.5029 4.8 13.4189 4.836 13.3589 4.884C13.2869 4.932 13.2509 5.004 13.2389 5.088L12.3509 9.264C10.4909 9.324 8.81091 9.876 7.58691 10.752C7.27491 10.452 6.84291 10.272 6.37491 10.272C5.40291 10.272 4.62291 11.052 4.62291 12C4.62291 12.732 5.05491 13.332 5.65491 13.608C5.63091 13.8 5.61891 13.944 5.61891 14.136C5.61891 16.8 8.75091 19.02 12.6029 19.02C16.4789 19.02 19.6229 16.836 19.6229 14.136C19.6229 13.968 19.6109 13.8 19.5749 13.608C20.1749 13.332 20.6069 12.72 20.6069 12Z" fill="black"/>
    </g>
    <defs>
        <clipPath id="clip0_832_3134">
            <rect width="24" height="24" fill="white" transform="translate(0.602905)"/>
        </clipPath>
    </defs>
</svg>