<svg xmlns="http://www.w3.org/2000/svg" width="24" height="24" viewBox="0 0 24 24" fill="none">
    <g clip-path="url(#clip0_1530_7388)">
        <path d="M12 24.002C18.6274 24.002 24 18.6294 24 12.002C24 5.37454 18.6274 0.00195312 12 0.00195312C5.37258 0.00195312 0 5.37454 0 12.002C0 18.6294 5.37258 24.002 12 24.002Z" fill="#FF00AF"/>
        <path fill-rule="evenodd" clip-rule="evenodd" d="M13.6625 17.5938V6.4121C16.0696 7.13126 17.8292 9.36543 17.8292 12.0029C17.8292 14.6404 16.0696 16.875 13.6625 17.5938ZM11.9958 4.50293V10.8242L11.0438 9.8721L10.9221 7.49585L11.915 4.5071C11.2783 4.51376 10.6633 4.6046 10.0746 4.76085L9.59417 6.20543L8.2325 5.52251C7.69375 5.83626 7.19542 6.21168 6.7525 6.64543L9.27458 7.90918L9.34833 9.35543L7.9025 9.28126L6.63833 6.7596C6.205 7.20251 5.82917 7.70043 5.51542 8.2396L6.19875 9.60168L4.75333 10.0817C4.5975 10.6704 4.50667 11.2854 4.5 11.9221L7.48917 10.9292L9.86542 11.0504L10.8175 12.0029L9.86542 12.9554L7.48917 13.0767L4.5 12.0838C4.50667 12.7204 4.5975 13.3354 4.75333 13.9242L6.19875 14.4042L5.51542 15.7663C5.82917 16.3054 6.205 16.8033 6.63833 17.2463L7.9025 14.7246L9.34833 14.6504L9.27458 16.0963L6.7525 17.3604C7.19542 17.7938 7.69375 18.1692 8.2325 18.4833L9.59417 17.8004L10.0746 19.245C10.6633 19.4008 11.2783 19.4921 11.915 19.4988L10.9221 16.51L11.0438 14.1338L11.9958 13.1817V19.5029C16.1379 19.5029 19.4958 16.145 19.4958 12.0029C19.4958 7.86085 16.1379 4.50293 11.9958 4.50293Z" fill="white"/>
    </g>
    <defs>
        <clipPath id="clip0_1530_7388">
            <rect width="24" height="24" fill="white"/>
        </clipPath>
    </defs>
</svg>