<svg xmlns="http://www.w3.org/2000/svg" width="150" height="36" viewBox="0 0 150 36" fill="none">
  <g clip-path="url(#clip0_829_2751)">
    <path d="M57.7562 13.7978C57.4111 12.9287 56.812 12.2601 55.9612 11.792C55.1105 11.3238 54.0718 11.0898 52.8452 11.0898C51.3894 11.0898 50.1983 11.4223 49.2731 12.0861C48.3478 12.7499 47.7286 13.6921 47.4155 14.9129L49.1797 15.4398C49.4267 14.5539 49.8603 13.8986 50.4819 13.4724C51.1034 13.0464 51.8822 12.8327 52.8204 12.8327C53.6924 12.8327 54.392 12.9731 54.9179 13.2528C55.4437 13.5324 55.823 13.961 56.0534 14.5371C56.2566 15.0473 56.3642 15.6883 56.3748 16.4601C56.2059 16.4793 56.0298 16.5021 55.8443 16.5297C54.4547 16.7133 53.3557 16.8658 52.5498 16.987C51.7439 17.1082 50.9947 17.2571 50.3047 17.4323C49.2435 17.7084 48.4128 18.1682 47.8126 18.8115C47.2123 19.4549 46.9121 20.3071 46.9121 21.3682C46.9121 22.104 47.0846 22.7762 47.4309 23.386C47.7759 23.9958 48.2923 24.4807 48.9788 24.8396C49.6654 25.1984 50.4949 25.3785 51.465 25.3785C52.3536 25.3785 53.1595 25.2429 53.8839 24.9716C54.6071 24.7004 55.2333 24.297 55.7592 23.7617C56.0534 23.4628 56.3122 23.1255 56.5367 22.7546V25.0029H58.1532V16.5933C58.1532 16.034 58.126 15.5202 58.0729 15.0521C58.0197 14.584 57.9145 14.1662 57.7586 13.7989L57.7562 13.7978ZM56.3181 19.168C56.298 19.5401 56.2508 19.893 56.1764 20.2267C56.0534 20.9205 55.7958 21.5351 55.4047 22.0692C55.0135 22.6045 54.4996 23.0235 53.8626 23.3283C53.2245 23.6332 52.4954 23.7857 51.673 23.7857C50.9983 23.7857 50.4394 23.6704 49.9951 23.4412C49.5507 23.2119 49.2282 22.9131 49.0261 22.5445C48.824 22.1772 48.7235 21.7847 48.7235 21.367C48.7235 20.6984 48.9398 20.1703 49.3711 19.7814C49.8025 19.3924 50.3567 19.102 51.0301 18.9099C51.6636 18.7347 52.3879 18.5883 53.202 18.4718C54.0163 18.3554 55.0195 18.2294 56.213 18.0962L56.3476 18.0781C56.3453 18.491 56.3347 18.8548 56.3181 19.168Z" fill="black"/>
    <path d="M65.4067 22.5982L61.4705 11.4688H59.6318L64.4696 25.0049H66.3449L71.1814 11.4688H69.318L65.4067 22.5982Z" fill="black"/>
    <path d="M81.2119 18.2481C80.5206 17.8977 79.554 17.5628 78.3121 17.2459C77.2344 16.9698 76.4238 16.7213 75.8814 16.5004C75.339 16.2796 74.9585 16.0431 74.7399 15.7923C74.5213 15.5414 74.4126 15.2329 74.4126 14.8644C74.4126 14.4383 74.5485 14.0638 74.8203 13.7421C75.0921 13.4205 75.4678 13.1744 75.9488 13.0027C76.4296 12.831 76.9827 12.7543 77.6078 12.771C78.2743 12.7795 78.8663 12.8899 79.3851 13.1036C79.9037 13.316 80.3232 13.6173 80.6434 14.0062C80.9649 14.3951 81.1693 14.8524 81.2603 15.3781L83.1108 15.0396C83.0198 14.263 82.7327 13.5753 82.247 12.9775C81.7613 12.3797 81.1197 11.9164 80.3221 11.5863C79.5245 11.2562 78.6275 11.0918 77.6326 11.0918C76.6376 11.0918 75.7573 11.2526 74.9916 11.5743C74.2271 11.896 73.6327 12.3497 73.2085 12.9343C72.7843 13.5188 72.5728 14.1922 72.5728 14.9521C72.5728 15.5954 72.7169 16.1344 73.0041 16.5689C73.2923 17.0034 73.7733 17.3875 74.448 17.7224C75.1228 18.0573 76.0728 18.391 77.2982 18.7247C78.474 19.0511 79.3319 19.3225 79.8707 19.5397C80.4095 19.757 80.7735 19.9934 80.9625 20.2479C81.1516 20.5024 81.2462 20.8481 81.2462 21.2814C81.2462 21.7663 81.115 22.1901 80.8514 22.5537C80.5879 22.9174 80.2098 23.1971 79.7159 23.394C79.222 23.5908 78.6429 23.688 77.9765 23.688C77.31 23.688 76.6767 23.586 76.126 23.3808C75.5742 23.1755 75.1181 22.8862 74.7565 22.5093C74.3948 22.1336 74.1479 21.6859 74.0167 21.1686L72.1663 21.4818C72.3222 22.292 72.6531 22.9883 73.16 23.5692C73.6658 24.1502 74.3216 24.5955 75.1275 24.904C75.9334 25.2124 76.8504 25.3673 77.8795 25.3673C78.9655 25.3673 79.9026 25.2016 80.6931 24.8728C81.4824 24.5427 82.0875 24.0685 82.507 23.4503C82.9265 22.8322 83.1356 22.1012 83.1356 21.2574C83.1356 20.5467 82.9879 19.9563 82.6913 19.4845C82.3947 19.0128 81.9019 18.601 81.2107 18.2493L81.2119 18.2481Z" fill="black"/>
    <path d="M95.0257 12.0177C94.1419 11.3995 93.1069 11.0898 91.9225 11.0898C90.739 11.0898 89.6621 11.3947 88.7948 12.0044C88.282 12.3645 87.8459 12.8087 87.4808 13.3296V11.4655H85.8525V31.0176H87.6782V23.3752C87.9961 23.7844 88.3612 24.1422 88.7759 24.4434C89.6315 25.0664 90.6562 25.3773 91.8478 25.3773C93.0403 25.3773 94.1203 25.0677 95.0131 24.4494C95.905 23.8313 96.5854 22.979 97.0543 21.8927C97.5241 20.8064 97.7581 19.5822 97.7581 18.221C97.7581 16.8597 97.5241 15.6499 97.0543 14.5672C96.5854 13.4856 95.9086 12.6346 95.0248 12.0165L95.0257 12.0177ZM95.365 21.0225C95.0518 21.8459 94.5838 22.4918 93.9583 22.9587C93.3337 23.4268 92.5678 23.6609 91.6642 23.6609C90.7597 23.6609 89.9812 23.4315 89.3561 22.9718C88.731 22.5121 88.2619 21.8736 87.95 21.0537C87.6368 20.2351 87.4808 19.2905 87.4808 18.221C87.4808 17.1514 87.6344 16.1984 87.944 15.3882C88.2525 14.578 88.7169 13.9454 89.3384 13.4892C89.96 13.0343 90.7219 12.8062 91.6273 12.8062C92.5327 12.8062 93.3256 13.0379 93.9583 13.5013C94.5919 13.9646 95.0635 14.6068 95.3722 15.4254C95.68 16.2441 95.8348 17.1755 95.8348 18.221C95.8348 19.2664 95.6782 20.1991 95.365 21.0225Z" fill="black"/>
    <path d="M109.677 12.0565C108.879 11.4383 107.847 11.1286 106.58 11.1286C105.477 11.1286 104.507 11.3735 103.668 11.862C103.043 12.2257 102.521 12.7203 102.102 13.3444V6.95508H100.46V25.0032H102.286V17.7845C102.286 16.757 102.438 15.8771 102.742 15.1461C103.047 14.4152 103.49 13.8545 104.075 13.4668C104.658 13.0779 105.378 12.8835 106.233 12.8835C107.139 12.8835 107.879 13.1056 108.454 13.5473C109.03 13.9902 109.448 14.5892 109.707 15.3454C109.966 16.1016 110.095 17.0187 110.095 18.0965V25.002H111.921V17.5576C111.921 16.4041 111.746 15.3538 111.397 14.4055C111.047 13.4573 110.472 12.6735 109.675 12.0553L109.677 12.0565Z" fill="black"/>
    <path d="M124.058 12.0065C123.124 11.3966 122.003 11.0918 120.696 11.0918C119.389 11.0918 118.31 11.3847 117.364 11.9692C116.418 12.5538 115.687 13.3881 115.168 14.4695C114.649 15.5522 114.391 16.8281 114.391 18.2985C114.391 19.769 114.652 20.9645 115.174 22.034C115.697 23.1035 116.438 23.9281 117.401 24.5091C118.363 25.09 119.487 25.3805 120.77 25.3805C121.626 25.3805 122.43 25.2365 123.182 24.9484C123.935 24.6603 124.601 24.2378 125.182 23.6821C125.761 23.1263 126.224 22.4565 126.57 21.6703L124.879 21.0065C124.468 21.8588 123.904 22.5069 123.189 22.9487C122.473 23.3916 121.642 23.6124 120.697 23.6124C119.752 23.6124 118.986 23.4012 118.328 22.9798C117.669 22.5585 117.17 21.9463 116.828 21.1434C116.54 20.4651 116.374 19.6669 116.329 18.7499H126.829C126.87 17.1702 126.651 15.8043 126.175 14.6519C125.697 13.4985 124.993 12.6174 124.059 12.0076L124.058 12.0065ZM116.366 17.2075C116.439 16.4801 116.592 15.8331 116.827 15.2713C117.169 14.4563 117.669 13.8381 118.333 13.4169C118.994 12.9955 119.799 12.7842 120.745 12.7842C121.69 12.7842 122.414 12.9847 123.039 13.3856C123.664 13.7865 124.137 14.3807 124.458 15.1657C124.693 15.7431 124.85 16.4248 124.925 17.2086L116.366 17.2075Z" fill="black"/>
    <path d="M134.805 11.3601C134.332 11.3889 133.867 11.4873 133.41 11.6542C132.954 11.821 132.557 12.0551 132.22 12.3564C131.94 12.5736 131.681 12.8533 131.442 13.1966C131.348 13.3322 131.262 13.4715 131.183 13.6143V11.4669H129.555V25.0031H131.368V18.2476C131.368 17.5622 131.408 16.9717 131.485 16.4747C131.564 15.9778 131.716 15.4929 131.942 15.0211C132.168 14.5494 132.495 14.1461 132.923 13.8112C133.375 13.4355 133.883 13.205 134.447 13.1222C135.011 13.0394 135.563 13.0634 136.106 13.1978V11.4682C135.711 11.3673 135.278 11.3325 134.804 11.3613L134.805 11.3601Z" fill="black"/>
    <path d="M149.9 18.7487C149.942 17.169 149.724 15.8031 149.247 14.6508C148.77 13.4972 148.064 12.6162 147.131 12.0065C146.198 11.3966 145.076 11.0918 143.769 11.0918C142.462 11.0918 141.383 11.3847 140.438 11.9692C139.492 12.5538 138.76 13.3881 138.241 14.4695C137.722 15.5522 137.464 16.8281 137.464 18.2985C137.464 19.769 137.725 20.9645 138.247 22.034C138.769 23.1035 139.511 23.9281 140.474 24.5091C141.437 25.09 142.56 25.3805 143.843 25.3805C144.699 25.3805 145.503 25.2365 146.255 24.9484C147.008 24.6603 147.674 24.2378 148.254 23.6821C148.835 23.1263 149.297 22.4565 149.643 21.6703L147.952 21.0065C147.54 21.8588 146.977 22.5069 146.261 22.9487C145.545 23.3916 144.714 23.6124 143.769 23.6124C142.823 23.6124 142.058 23.4012 141.4 22.9798C140.742 22.5585 140.241 21.9463 139.9 21.1434C139.612 20.4651 139.447 19.6669 139.402 18.7499L149.9 18.7487ZM139.439 17.2075C139.512 16.4801 139.665 15.8331 139.9 15.2713C140.241 14.4563 140.743 13.8381 141.406 13.4169C142.067 12.9955 142.872 12.7842 143.817 12.7842C144.763 12.7842 145.487 12.9847 146.112 13.3856C146.738 13.7865 147.21 14.3807 147.531 15.1657C147.766 15.7431 147.923 16.4248 147.998 17.2086L139.439 17.2075Z" fill="black"/>
    <path d="M43.2424 6.95508C42.5121 6.95508 41.9189 7.55644 41.9189 8.29944C41.9189 9.04247 42.511 9.64386 43.2424 9.64386C43.9739 9.64386 44.5659 9.04247 44.5659 8.29944C44.5659 7.55644 43.9739 6.95508 43.2424 6.95508Z" fill="black"/>
    <path d="M42.3765 28.0945C42.3765 28.6383 42.1579 29.116 41.7195 29.116H40.2295V31.0209H42.2017C42.815 31.0209 43.2864 30.8121 43.6149 30.3956C43.9434 29.9779 44.1077 29.4065 44.1077 28.6815V11.4688H42.3765V28.0945Z" fill="black"/>
    <path d="M17.782 0.09375C8.24004 0.09375 0.504883 7.9511 0.504883 17.6437C0.504883 27.3364 8.24004 35.1937 17.782 35.1937C27.3239 35.1937 35.059 27.3364 35.059 17.6437C35.059 7.9511 27.3239 0.09375 17.782 0.09375ZM28.5528 28.5848C25.6754 31.5075 21.8504 33.116 17.782 33.116C13.7135 33.116 9.88844 31.5063 7.01111 28.5848C4.13376 25.6619 2.55034 21.7764 2.55034 17.6437C2.55034 13.511 4.13494 9.62554 7.01111 6.70276C9.88727 3.77995 13.7135 2.17152 17.782 2.17152C21.8504 2.17152 25.6754 3.78116 28.5528 6.70276C31.4301 9.62554 33.0136 13.511 33.0136 17.6437C33.0136 21.7764 31.4289 25.6619 28.5528 28.5848Z" fill="black"/>
    <path d="M17.7823 5.94336C11.4214 5.94336 6.26465 11.1816 6.26465 17.6429C6.26465 24.1043 11.4214 29.3426 17.7823 29.3426C24.1432 29.3426 29.3012 24.1043 29.3012 17.6429C29.3012 11.1816 24.1443 5.94336 17.7823 5.94336ZM17.7823 28.3043C11.9957 28.3043 7.28679 23.5222 7.28679 17.6429C7.28679 11.7638 11.9945 6.98164 17.7823 6.98164C23.57 6.98164 28.2779 11.7638 28.2779 17.6429C28.2779 23.5222 23.57 28.3043 17.7823 28.3043Z" fill="black"/>
  </g>
  <defs>
    <clipPath id="clip0_829_2751">
      <rect width="149.4" height="36" fill="white" transform="translate(0.50293)"/>
    </clipPath>
  </defs>
</svg>