<svg width="179" height="68" viewBox="0 0 179 68" fill="none" xmlns="http://www.w3.org/2000/svg">
<path d="M34.4677 44.6085V23.5493C38.9635 24.8901 42.2761 29.0704 42.2761 34.0394C42.2761 39.0085 38.9635 43.1887 34.4677 44.6085ZM31.3128 20V31.831L29.4987 30.0169L29.262 25.5211L31.155 20C29.9719 20 28.7888 20.1577 27.6846 20.4732L26.817 23.1549L24.293 21.893C23.2677 22.5239 22.3212 23.1549 21.4536 24.0225L26.186 26.3887L26.3437 29.0704L23.662 28.9127L21.2959 24.1803C20.5071 25.0479 19.7973 25.9155 19.1663 26.9408L20.4282 29.4648L17.7466 30.3324C17.4311 31.4366 17.2733 32.6197 17.2733 33.8028L22.8733 31.9099L27.3691 32.1465L29.1832 33.9606L27.3691 35.7746L22.8733 36.0113L17.2733 34.1972C17.2733 35.3803 17.4311 36.5634 17.7466 37.6676L20.4282 38.5352L19.1663 41.0592C19.7184 42.0845 20.4282 43.031 21.2959 43.8197L23.662 39.0873L26.3437 38.9296L26.186 41.6113L21.4536 43.9775C22.3212 44.7662 23.1888 45.4761 24.2142 46.107L26.7381 44.8451L27.6057 47.5268C28.7099 47.8423 29.893 48 31.0761 48L29.1832 42.4L29.4198 37.9042L31.2339 36.0901V48C39.0423 48 45.3522 41.6901 45.3522 33.8817C45.3522 26.0732 39.1212 20 31.3128 20Z" fill="black"/>
<path fill-rule="evenodd" clip-rule="evenodd" d="M88.7326 24.7334C87.3129 24.7334 86.2086 25.1278 85.4199 25.9165C84.6312 26.7052 84.2368 27.7306 84.2368 29.0714V30.2545H81.9495V32.2264H84.2368V43.663H86.6819V32.3052H90.5467V30.2545H86.603V29.0714C86.603 28.2827 86.7607 27.7306 87.1551 27.3362C87.5495 26.9418 88.1016 26.7052 88.8115 26.7052C89.1269 26.7052 89.5213 26.7841 89.8368 26.863C90.1523 26.9418 90.4678 27.0996 90.7044 27.3362L91.4931 25.5221C91.1776 25.2855 90.7833 25.0489 90.2312 24.8911C89.7579 24.8123 89.2847 24.7334 88.7326 24.7334ZM62.8621 32.3058C62.3889 31.7537 61.8368 31.2016 61.2058 30.8861C60.2593 30.4129 59.2339 30.0974 58.1297 30.0974C56.7889 30.0974 55.6846 30.4129 54.6593 30.965C53.6339 31.5171 52.8452 32.3058 52.2142 33.3312C51.5832 34.3566 51.3466 35.5397 51.3466 36.9594C51.3466 38.3002 51.6621 39.5622 52.2142 40.5875C52.8452 41.6129 53.6339 42.4016 54.6593 43.0326C55.6846 43.5847 56.8677 43.9002 58.1297 43.9002C59.3128 43.9002 60.3382 43.6636 61.2846 43.1115C61.9156 42.7171 62.4677 42.2439 62.941 41.6129V43.7425H65.3072V24.8918H62.8621V32.3058ZM62.31 39.4833C61.9156 40.1932 61.3635 40.7453 60.6537 41.1397C59.9438 41.534 59.2339 41.6918 58.3663 41.6918C57.4987 41.6918 56.71 41.534 56.079 41.1397C55.3692 40.7453 54.8959 40.1932 54.4227 39.4833C54.0283 38.7735 53.7917 37.9058 53.7917 36.9594C53.7917 36.0129 54.0283 35.1453 54.4227 34.4354C54.817 33.7256 55.3692 33.1735 56.079 32.7791C56.7889 32.3847 57.4987 32.227 58.3663 32.227C59.2339 32.227 59.9438 32.3847 60.6537 32.7791C61.3635 33.1735 61.9156 33.7256 62.31 34.4354C62.7044 35.1453 62.941 35.934 62.941 36.9594C62.941 37.9847 62.7044 38.7735 62.31 39.4833ZM78.1635 31.0436C77.1381 30.4914 76.0339 30.1759 74.6931 30.1759C73.4311 30.1759 72.248 30.4914 71.2226 31.0436C70.1973 31.5957 69.4085 32.4633 68.7776 33.4886C68.2254 34.514 67.91 35.6971 67.91 37.0379C67.91 38.3788 68.2254 39.5619 68.7776 40.5872C69.4085 41.6126 70.1973 42.4013 71.3015 43.0323C72.4057 43.6633 73.6677 43.8999 75.0874 43.8999C76.1916 43.8999 77.217 43.7421 78.0846 43.3478C78.9522 42.9534 79.7409 42.4013 80.3719 41.6914L79.0311 40.114C78.5578 40.6661 78.0057 41.0605 77.2959 41.2971C76.6649 41.5337 75.955 41.6914 75.0874 41.6914C74.1409 41.6914 73.2733 41.5337 72.5635 41.1393C71.8536 40.745 71.2226 40.1928 70.8283 39.483C70.5128 38.9309 70.355 38.3788 70.2762 37.7478H81.1607V37.3534V36.959C81.1607 35.5393 80.8452 34.3562 80.293 33.3309C79.9776 32.3844 79.1888 31.5957 78.1635 31.0436ZM72.4846 32.7788C73.1156 32.3844 73.9043 32.2266 74.7719 32.2266C75.6395 32.2266 76.4283 32.3844 77.0592 32.7788C77.6902 33.1731 78.2423 33.7252 78.5578 34.3562C78.8733 34.9083 79.0311 35.4605 79.0311 36.0914H70.355C70.4339 35.4605 70.5916 34.9083 70.9071 34.4351C71.3015 33.7252 71.7747 33.1731 72.4846 32.7788ZM92.9129 30.2546H95.358V43.663H92.9129V30.2546ZM105.138 32.3055C104.271 32.3055 103.482 32.4633 102.772 32.8576C102.062 33.252 101.51 33.8041 101.116 34.514C100.721 35.2238 100.485 36.0914 100.485 37.0379C100.485 37.9844 100.721 38.852 101.116 39.5619C101.51 40.2717 102.062 40.8238 102.772 41.2182C103.482 41.6126 104.271 41.7703 105.138 41.7703C105.848 41.7703 106.558 41.6126 107.189 41.2971C107.82 41.0605 108.293 40.5083 108.766 39.8774L110.58 41.0605C110.028 42.0069 109.318 42.7168 108.372 43.19C107.425 43.6633 106.321 43.8999 105.138 43.8999C103.797 43.8999 102.614 43.6633 101.51 43.0323C100.406 42.4013 99.617 41.6126 98.986 40.5872C98.3551 39.5619 98.0396 38.3788 98.0396 37.0379C98.0396 35.6971 98.3551 34.514 98.986 33.4886C99.617 32.4633 100.406 31.5957 101.51 31.0436C102.535 30.4914 103.797 30.1759 105.138 30.1759C106.321 30.1759 107.425 30.4126 108.372 30.8858C109.318 31.359 110.028 32.0689 110.58 33.0154L108.766 34.1985C108.372 33.5675 107.82 33.0943 107.189 32.7788C106.558 32.4633 105.848 32.3055 105.138 32.3055ZM122.806 30.8073C121.938 30.4129 120.992 30.1763 119.887 30.1763C118.704 30.1763 117.6 30.4129 116.654 30.8861C116.023 31.2016 115.549 31.6749 115.076 32.227V24.8918H112.631V43.7425H115.076V36.8016C115.076 35.8551 115.234 34.9875 115.628 34.3566C115.944 33.7256 116.496 33.1735 117.127 32.858C117.758 32.5425 118.547 32.3847 119.414 32.3847C120.597 32.3847 121.465 32.7002 122.096 33.4101C122.727 34.0411 123.042 35.0664 123.042 36.3284V43.8213H125.487V36.0918C125.487 34.7509 125.251 33.6467 124.778 32.858C124.226 31.8326 123.595 31.2016 122.806 30.8073ZM130.693 30.6492C131.718 30.3337 132.665 30.1759 133.769 30.1759C135.662 30.1759 137.082 30.5703 137.871 31.5168C138.896 32.3844 139.369 33.8041 139.369 35.6182V43.7421H137.082V41.9281C136.766 42.4802 136.293 42.8745 135.741 43.19C134.952 43.6633 133.927 43.8999 132.665 43.8999C131.718 43.8999 130.851 43.7421 130.062 43.4267C129.273 43.1112 128.721 42.6379 128.327 42.0069C127.933 41.3759 127.696 40.745 127.696 39.9562C127.696 39.2464 127.933 38.6154 128.248 37.9844C128.642 37.4323 129.195 36.959 129.983 36.5647C130.772 36.1703 131.797 36.0126 133.138 36.0126H137.003V35.5393C137.003 34.514 136.766 33.7252 136.135 33.1731C135.583 32.621 134.637 32.3055 133.454 32.3055C132.665 32.3055 131.876 32.4633 131.087 32.6999C130.378 32.9365 129.747 33.252 129.195 33.7252L128.169 31.9112C128.879 31.359 129.747 30.9647 130.693 30.6492ZM133.296 42.0069C134.164 42.0069 134.952 41.7703 135.662 41.3759C136.293 40.9816 136.766 40.3506 137.161 39.5619V37.6689H133.375C132.192 37.6689 131.324 37.9055 130.93 38.2999C130.535 38.6943 130.299 39.2464 130.299 39.7985C130.299 40.4295 130.535 40.9816 131.087 41.3759C131.64 41.7703 132.349 42.0069 133.296 42.0069ZM145.363 30.2546H142.918V43.663H145.363V30.2546ZM158.851 30.8069C159.718 31.2013 160.349 31.8323 160.823 32.6999C161.296 33.5675 161.533 34.6717 161.533 36.0126V43.7421H159.087V36.2492C159.087 34.9872 158.772 33.9619 158.141 33.3309C157.51 32.621 156.642 32.3055 155.459 32.3055C154.592 32.3055 153.803 32.4633 153.172 32.7788C152.541 33.0943 151.989 33.6464 151.673 34.2774C151.279 34.9083 151.121 35.7759 151.121 36.7224V43.6633H148.676V30.2548H151.042V32.3055C151.437 31.7534 151.989 31.2802 152.699 30.8858C153.645 30.4126 154.749 30.1759 155.933 30.1759C157.037 30.1759 157.983 30.4126 158.851 30.8069Z" fill="black"/>
</svg>
