<svg xmlns="http://www.w3.org/2000/svg" width="149" height="26" viewBox="0 0 149 26" fill="none">
  <g clip-path="url(#clip0_829_2735)">
    <path d="M63.1162 0.0351562H59.3217V20.7035H63.1162V0.0351562Z" fill="black"/>
    <path d="M64.8763 20.7037H68.6674V0L64.8763 0.035397V20.7037Z" fill="black"/>
    <path d="M63.1162 0.0351562H59.3217V20.7035H63.1162V0.0351562Z" fill="black"/>
    <path d="M64.8763 20.7037H68.6674V0L64.8763 0.035397V20.7037Z" fill="black"/>
    <path d="M121.892 6.15625C119.761 6.15625 118.047 7.09781 116.745 8.97386V6.35801H112.947V20.708H116.745V16.078C116.745 11.9755 118.451 9.92604 121.863 9.92604H122.196H122.699L122.787 8.34025L122.9 6.2766C122.667 6.19873 122.331 6.15625 121.892 6.15625Z" fill="black"/>
    <path d="M121.892 6.15625C119.761 6.15625 118.047 7.09781 116.745 8.97386V6.35801H112.947V20.708H116.745V16.078C116.745 11.9755 118.451 9.92604 121.863 9.92604H122.196H122.699L122.787 8.34025L122.9 6.2766C122.667 6.19873 122.331 6.15625 121.892 6.15625Z" fill="black"/>
    <path d="M134.362 16.0454C134.323 15.5959 134.213 15.1782 134.04 14.7888C134.025 14.757 134.018 14.7216 134.004 14.6897C133.852 14.3641 133.689 14.042 133.434 13.7588C132.79 13.0402 131.859 12.5447 130.631 12.2756L127.208 11.5288C126.344 11.3376 125.912 10.9341 125.912 10.3217C125.912 9.93944 126.065 9.61025 126.373 9.33061C126.681 9.05451 127.176 8.91292 127.866 8.91292C128.634 8.91292 129.261 9.09699 129.749 9.46158C130.238 9.82617 130.521 10.304 130.599 10.8987L134.224 10.1801C133.972 8.91293 133.289 7.88995 132.167 7.10059C131.045 6.31477 129.654 5.92188 127.983 5.92188C126.203 5.92188 124.776 6.36434 123.714 7.24572C123.325 7.57138 123.031 7.93951 122.783 8.33595C122.482 8.81381 122.281 9.34122 122.192 9.92173C122.157 10.1624 122.118 10.4067 122.118 10.6686C122.118 11.7022 122.468 12.5765 123.166 13.2845C123.866 13.9959 124.868 14.4844 126.171 14.7534L129.102 15.3552C130.157 15.5853 130.684 16.0171 130.684 16.6507C130.684 17.0719 130.482 17.4188 130.082 17.6843C129.679 17.9533 129.134 18.0878 128.443 18.0878C126.642 18.0878 125.654 17.4365 125.484 16.1339L121.658 16.9091C121.831 18.3285 122.521 19.3869 123.728 20.0878C124.935 20.7886 126.39 21.1355 128.1 21.1355C130.015 21.1355 131.544 20.7214 132.687 19.9002C133.809 19.0896 134.372 17.9179 134.39 16.4029C134.39 16.3782 134.369 16.1445 134.362 16.0454Z" fill="black"/>
    <path d="M51.3817 5.92188C51.364 5.92188 51.3499 5.92541 51.3322 5.92541C47.304 5.95373 44.0404 9.22441 44.0404 13.2597C44.0404 13.3092 44.051 13.3553 44.0546 13.4048C44.0546 13.4473 44.0439 13.4862 44.0439 13.5252C44.0439 17.7268 47.3288 21.132 51.3782 21.132C54.0153 21.132 56.3126 19.6772 57.6045 17.5109L54.348 16.318C53.6153 17.2029 52.5711 17.7834 51.3782 17.7834C49.8243 17.7834 48.4898 16.8206 47.835 15.4331C48.9889 15.6171 50.1747 15.7162 51.3817 15.7162C51.7853 15.7162 52.1817 15.6879 52.5782 15.6667C53.3604 15.6242 54.1321 15.5534 54.8931 15.4366C56.1639 15.2384 57.4063 14.941 58.6027 14.5481C58.6665 14.1835 58.6983 13.8048 58.7089 13.4225C58.7089 13.3659 58.7231 13.3128 58.7231 13.2561C58.7196 9.21026 55.4347 5.92188 51.3817 5.92188ZM51.3817 12.3712C50.2136 12.3712 49.042 12.2473 47.8881 11.996C48.1465 11.1465 48.6633 10.4385 49.3287 9.95006C49.5623 9.79785 49.7889 9.63501 50.0508 9.5359C50.1889 9.48281 50.3305 9.42972 50.4791 9.39433C50.5853 9.36601 50.695 9.35893 50.8012 9.33769C50.9924 9.30937 51.1835 9.2775 51.3817 9.2775C51.5835 9.2775 51.7782 9.30937 51.9693 9.34123C52.072 9.35893 52.1782 9.36954 52.2808 9.39785C52.433 9.43679 52.5746 9.48989 52.7198 9.54298C52.9817 9.64209 53.2082 9.80493 53.4419 9.96068C54.1038 10.4456 54.6206 11.1536 54.8754 12.0031C53.718 12.2438 52.5498 12.3712 51.3817 12.3712Z" fill="black"/>
    <path d="M104.999 5.92188C104.981 5.92188 104.967 5.92541 104.949 5.92541C100.921 5.95373 97.6576 9.22441 97.6576 13.2597C97.6576 13.3092 97.6682 13.3553 97.6717 13.4048C97.6717 13.4473 97.6611 13.4862 97.6611 13.5252C97.6611 17.7268 100.946 21.132 104.995 21.132C107.633 21.132 109.93 19.6772 111.222 17.5109L107.965 16.318C107.233 17.2029 106.188 17.7834 104.995 17.7834C103.442 17.7834 102.107 16.8206 101.452 15.4331C102.606 15.6171 103.792 15.7162 104.999 15.7162C105.403 15.7162 105.799 15.6879 106.195 15.6667C106.978 15.6242 107.749 15.5534 108.51 15.4366C109.781 15.2384 111.024 14.941 112.22 14.5481C112.284 14.1835 112.316 13.8048 112.326 13.4225C112.326 13.3659 112.34 13.3128 112.34 13.2561C112.337 9.21026 109.052 5.92188 104.999 5.92188ZM104.999 12.3712C103.831 12.3712 102.659 12.2473 101.505 11.996C101.52 11.9535 101.548 11.9217 101.562 11.8792C101.831 11.0863 102.312 10.4138 102.942 9.95006C103.176 9.79785 103.403 9.63501 103.665 9.5359C103.803 9.48281 103.944 9.42972 104.093 9.39433C104.199 9.36601 104.309 9.35893 104.415 9.33769C104.606 9.30937 104.797 9.2775 104.995 9.2775C105.197 9.2775 105.392 9.30937 105.583 9.34123C105.686 9.35893 105.792 9.36954 105.895 9.39785C106.047 9.43679 106.192 9.48989 106.334 9.54298C106.595 9.64209 106.822 9.80493 107.056 9.96068C107.686 10.4208 108.164 11.0934 108.433 11.8827C108.447 11.9252 108.475 11.9571 108.489 11.9995C107.335 12.2438 106.167 12.3712 104.999 12.3712Z" fill="black"/>
    <path d="M141.252 5.92188C141.234 5.92188 141.22 5.92541 141.202 5.92541C137.174 5.95373 133.911 9.22441 133.911 13.2597C133.911 13.3092 133.921 13.3553 133.925 13.4048C133.925 13.4473 133.914 13.4862 133.914 13.5252C133.914 17.7268 137.199 21.132 141.248 21.132C143.885 21.132 146.183 19.6772 147.475 17.5109L144.218 16.318C143.485 17.2029 142.441 17.7834 141.248 17.7834C139.694 17.7834 138.36 16.8206 137.705 15.4331C138.863 15.6171 140.045 15.7162 141.252 15.7162C141.655 15.7162 142.052 15.6879 142.448 15.6667C143.231 15.6242 144.002 15.5534 144.763 15.4366C146.034 15.2384 147.277 14.941 148.473 14.5481C148.537 14.1835 148.569 13.8048 148.579 13.4225C148.579 13.3659 148.593 13.3128 148.593 13.2561C148.593 9.21026 145.305 5.92188 141.252 5.92188ZM141.252 12.3712C140.084 12.3712 138.912 12.2473 137.758 11.996C137.772 11.9535 137.801 11.9217 137.815 11.8792C138.084 11.0863 138.565 10.4138 139.195 9.95006C139.429 9.79785 139.656 9.63501 139.917 9.5359C140.059 9.48281 140.197 9.42972 140.346 9.39433C140.452 9.36601 140.562 9.35893 140.668 9.33769C140.859 9.30937 141.05 9.2775 141.248 9.2775C141.45 9.2775 141.645 9.30937 141.836 9.34123C141.939 9.35893 142.045 9.36954 142.147 9.39785C142.3 9.43679 142.441 9.48989 142.586 9.54298C142.848 9.64209 143.075 9.80493 143.309 9.96068C143.939 10.4208 144.416 11.0934 144.685 11.8827C144.7 11.9252 144.728 11.9571 144.742 11.9995C143.592 12.2438 142.424 12.3712 141.252 12.3712Z" fill="black"/>
    <path d="M95.1205 6.32422L91.2091 16.0726L87.3013 6.32422H86.2889L84.7279 9.95242L89.1985 20.7025H93.2232L99.2018 6.32422H95.1205Z" fill="black"/>
    <path d="M80.6934 6.32422L79.989 7.95602L76.7891 15.354L76.6405 15.8389L75.0264 11.386L73.607 7.95956L72.9309 6.32776H68.7045L74.6547 20.2459C74.0884 21.8175 73.2388 22.3839 71.4371 22.3839V25.9873C72.5521 26.0439 73.5291 25.9023 74.4069 25.5944C76.0033 25.0316 77.2458 23.8528 78.1838 21.8989C78.2086 21.8494 78.2298 21.7892 78.251 21.7396L84.0562 8.32769L84.9198 6.32776H80.6934V6.32422Z" fill="black"/>
    <path d="M39.487 6.32422V17.7468V21.3113C39.487 21.637 39.3596 21.906 39.1118 22.1148C38.8605 22.3237 38.5384 22.4299 38.1313 22.4299C37.8304 22.4299 37.4269 22.3378 36.9455 22.175C36.7685 22.6883 36.6163 23.2121 36.4995 23.7502L36.4641 23.9307C36.365 24.4369 36.2977 24.9537 36.2552 25.4811C37.1968 25.8174 38.1384 25.9979 39.0799 25.9979C40.3471 25.9979 41.3595 25.6156 42.1276 24.8475C42.8957 24.0794 43.278 23.0741 43.278 21.8281V14.6673V6.32422H39.487Z" fill="black"/>
    <path d="M27.7453 13.6188C27.7453 12.872 27.6675 12.1428 27.5542 11.4278C27.5365 11.3216 27.5259 11.2154 27.5046 11.1092C27.3772 10.4331 27.1967 9.77825 26.9737 9.14465C26.9312 9.02076 26.8887 8.90395 26.8427 8.7836C26.602 8.15707 26.3224 7.54824 25.9967 6.97127C25.9472 6.88278 25.8905 6.79782 25.8374 6.70933C25.4799 6.11112 25.0906 5.53061 24.6481 4.99611C24.6339 4.98196 24.6198 4.9678 24.6092 4.95364C22.1172 1.95905 18.3687 0.0546875 14.1741 0.0546875C9.97958 0.0546875 6.23104 1.95905 3.74263 4.9501C3.72847 4.96426 3.71431 4.97842 3.70369 4.99257C3.26123 5.52707 2.87186 6.10758 2.51435 6.70579C2.46125 6.79428 2.40462 6.87924 2.35506 6.96773C2.02941 7.54824 1.74977 8.15353 1.50907 8.78006C1.46305 8.90041 1.42058 9.01722 1.3781 9.14111C1.1551 9.77825 0.974574 10.4331 0.847145 11.1056C0.825906 11.2118 0.815287 11.318 0.797589 11.4242C0.680779 12.1428 0.602905 12.872 0.602905 13.6188C0.602905 13.6224 0.602905 13.6224 0.602905 13.6259V13.6295C0.602905 14.4436 0.687858 15.2365 0.825906 16.0117C1.948 16.3798 3.08778 16.6984 4.24526 16.978C4.15677 19.0806 3.77448 20.185 2.64532 20.7584C3.28954 21.7955 4.0612 22.7336 4.95321 23.5619C7.00623 22.1955 7.61152 19.9514 7.77081 17.6647C8.24867 17.739 8.73715 17.7886 9.22208 17.8452V25.9936H13.2432V18.132C13.5547 18.139 13.8591 18.1709 14.1741 18.1709C14.4892 18.1709 14.7936 18.139 15.1051 18.132V25.9936H19.1262V17.8417C19.6111 17.7851 20.096 17.7355 20.5774 17.6612C20.7367 19.9478 21.342 22.192 23.3951 23.5583C24.2835 22.7336 25.0587 21.792 25.7029 20.7549C24.5738 20.1814 24.1915 19.0735 24.103 16.9745C25.2605 16.6948 26.4038 16.3763 27.5223 16.0081C27.6604 15.2329 27.7453 14.44 27.7453 13.6259V13.6224C27.7453 13.6224 27.7453 13.6224 27.7453 13.6188ZM21.7102 13.8737C20.8783 14.0365 20.0465 14.1746 19.2111 14.2843C17.5404 14.5038 15.859 14.617 14.1777 14.617C12.4963 14.617 10.8149 14.5073 9.14421 14.2843C8.30884 14.1746 7.47347 14.0365 6.64518 13.8737C5.81689 13.7073 4.9886 13.5162 4.16385 13.2967C4.2488 10.6101 5.39921 8.18539 7.20446 6.43323C9.00971 4.68108 11.4698 3.60147 14.1777 3.60147C16.8855 3.60147 19.3456 4.68108 21.1509 6.43323C22.9561 8.18539 24.1065 10.6065 24.1915 13.2967C23.3667 13.5162 22.5384 13.7109 21.7102 13.8737Z" fill="black"/>
  </g>
  <defs>
    <clipPath id="clip0_829_2735">
      <rect width="148" height="26" fill="white" transform="translate(0.602905)"/>
    </clipPath>
  </defs>
</svg>